<?xml version="1.0" encoding="UTF-8"?>
<!DOCTYPE svg PUBLIC "-//W3C//DTD SVG 1.1//EN" "http://www.w3.org/Graphics/SVG/1.1/DTD/svg11.dtd">
<!-- Creator: CorelDRAW X6 -->
<svg xmlns="http://www.w3.org/2000/svg" xml:space="preserve" width="210mm" height="84.6666mm" version="1.1" style="shape-rendering:geometricPrecision; text-rendering:geometricPrecision; image-rendering:optimizeQuality; fill-rule:evenodd; clip-rule:evenodd"
viewBox="0 0 21000 8467"
 xmlns:xlink="http://www.w3.org/1999/xlink">
 <defs>
  <style type="text/css">
   <![CDATA[
    .fil5 {fill:#323232}
    .fil4 {fill:#333333}
    .fil0 {fill:#34A853}
    .fil1 {fill:#4687F0}
    .fil10 {fill:#48AA4B}
    .fil17 {fill:#5183DB}
    .fil12 {fill:#66AC44}
    .fil13 {fill:#6C7ACE}
    .fil11 {fill:#72AE39}
    .fil8 {fill:#7772B9}
    .fil7 {fill:#8DB033}
    .fil6 {fill:#976695}
    .fil16 {fill:#AD6393}
    .fil15 {fill:#B0B32D}
    .fil9 {fill:#B35972}
    .fil14 {fill:#CAB526}
    .fil19 {fill:#CB546C}
    .fil18 {fill:#D0472D}
    .fil2 {fill:#E94235}
    .fil3 {fill:#FBBB03}
   ]]>
  </style>
 </defs>
 <g id="Слой_x0020_1">
  <metadata id="CorelCorpID_0Corel-Layer"/>
  <g id="_794681232">
   <path class="fil0" d="M6579 4417l14 -2c82,3 123,52 219,104l315 184c24,17 -4,1 25,16 24,12 24,11 46,25 19,12 33,17 51,28 68,41 89,45 138,87l30 1c23,35 8,15 39,30 33,16 18,2 33,33l27 5 61 27c45,13 20,17 52,28 16,6 46,4 69,8 50,10 42,27 45,35 35,1 102,1 147,1 38,-1 40,0 69,-10 36,-10 18,-10 69,-8l71 -29c41,-22 29,-8 61,-42 6,-49 -12,-17 59,-75 12,-10 3,-1 21,-18 5,-6 11,-12 13,-16 63,-74 58,-52 79,-106l10 -21c18,-35 11,-9 20,-70l40 -5c13,0 10,21 10,-17 -12,-13 -19,-33 -12,-56 8,-26 9,-23 41,-24l0 -185c-40,-2 -44,-4 -48,-47 -2,-35 2,-50 10,-79l-1 -10 -37 -3 -2 -56c-70,-52 2,16 -64,-83 -23,-34 -57,-53 -62,-75 -1,-6 -4,-6 -6,-9 -42,-21 -20,-25 -67,-47l-78 -41 -3 -31c-3,-11 12,-17 -16,-1l-35 -3 -1 -35c-42,-5 -5,1 -30,-13l-411 -239c-19,-11 -22,-10 -40,-20l-1265 -725c-19,-11 -16,-12 -36,-23l-216 -119c-2,-1 -4,-2 -6,-3 -19,-11 -1,-2 -19,-12l-40 -18c-22,-12 1,-2 -19,-11l-69 -19c-20,-7 -19,-8 -21,-9 -212,-78 -461,17 -597,179 -76,89 -134,197 -165,308 -31,112 -2,191 23,282 22,79 59,147 114,211l151 124c2,1 4,3 6,4l18 11c9,5 11,5 20,10l73 46c5,3 10,6 18,11l76 43c1,1 4,2 6,3l12 8c159,95 373,205 519,299l167 99c5,3 10,6 19,11l188 107c16,10 21,11 37,22l35 25z"/>
   <path class="fil1" d="M1012 4087c-9,35 -9,19 -24,46l-46 85c-4,15 -6,30 -11,49l-37 3 0 28c2,28 3,61 -1,89 -3,33 -4,41 -29,48 0,60 31,178 57,229l66 112c1,2 3,4 4,6 8,9 6,6 14,15l83 82c18,-12 -28,-16 37,-11l12 41 981 579c29,17 49,31 80,48l325 187c2,2 4,3 6,4l149 87c16,10 3,3 18,12 15,9 24,11 40,20l272 161c108,52 333,215 439,230 105,16 159,29 269,6 59,-12 77,-11 140,-38 54,-23 105,-59 150,-95l37 -33c93,-92 87,-112 144,-230 19,-38 19,-86 28,-129 30,-142 -23,-311 -100,-424 -89,-132 -195,-180 -324,-258l-368 -213c-18,-11 -22,-14 -37,-22l-601 -345c-2,-1 -4,-2 -6,-3l-62 -35c-65,8 -292,-144 -358,-178l-456 -263c-26,-14 -32,-20 -55,-32 -31,-16 -27,-2 -48,-31 -75,-12 -47,-24 -109,-38 -58,-13 -51,-26 -107,-31 -68,-6 -208,-16 -266,11 -57,27 -118,41 -179,96 -25,22 -108,99 -127,135z"/>
   <path class="fil2" d="M1298 3825c111,-1 111,-52 240,-12 36,12 77,3 122,16 25,7 22,13 46,22 44,16 41,-7 55,30 58,24 117,53 178,91l543 310 122 75c50,12 12,6 49,26 26,15 44,19 64,28 42,-12 39,-21 74,-39l832 -469c16,-10 17,-14 36,-23 12,-6 10,-4 21,-9 15,-7 4,-1 19,-10l56 -33c15,-9 -1,-1 18,-11l75 -43c182,-109 326,-195 388,-440 19,-80 21,-239 -15,-324 -12,-27 -8,-17 -15,-43l-38 -81c-13,-25 -9,-16 -24,-35 -94,-128 -216,-234 -381,-259 -52,-8 -100,-22 -160,-19 -72,4 -171,33 -234,61 -18,8 -17,9 -38,21l-377 215c-23,12 -50,26 -77,41l-1250 711c-1,1 -4,3 -6,4 -84,51 -213,110 -289,163 -30,20 -21,6 -34,36z"/>
   <path class="fil3" d="M8028 5009c-51,-2 -33,-2 -69,8 -29,10 -31,9 -69,10 -45,0 -112,0 -147,-1 -44,-6 -67,-17 -109,-26 -42,-10 -42,-24 -79,-32 -35,-6 -84,-25 -100,-58 -62,1 -37,-8 -71,-29 -40,-25 -134,-63 -173,-110 -50,-9 -20,-5 -42,-19l-64 -34c-67,-49 -54,-30 -95,-54l-417 -249 -14 2 -652 372c-2,1 -4,2 -6,3 -2,1 -5,3 -6,4 -2,1 -5,2 -7,4l-376 214c-152,99 -268,134 -381,319l-40 78c-22,44 -40,139 -40,197 0,55 8,58 16,103 9,50 -1,55 19,99 69,151 117,275 290,361 16,8 21,11 38,21 25,14 57,22 84,34 58,25 247,25 306,7l125 -53c16,-7 25,-10 42,-17l340 -192c14,-8 1,0 18,-11l561 -317c2,-1 4,-2 6,-3 2,-2 4,-3 6,-4l824 -467c5,-3 17,-10 18,-11 17,-10 3,-2 19,-11 10,-5 9,-3 20,-9l190 -106c15,-8 24,-16 35,-23z"/>
   <path class="fil4" d="M9693 3835l-256 0 0 -1045c294,0 613,-35 744,290 56,138 54,317 6,451 -74,204 -253,304 -494,304zm-434 157c347,0 725,52 954,-179 216,-219 237,-556 129,-824 -90,-223 -352,-356 -590,-356l-493 0 0 1359z"/>
   <path class="fil4" d="M12806 5904c-120,0 -216,-36 -278,-106 -161,-181 -149,-663 278,-663 270,0 404,296 319,535 -47,130 -168,234 -319,234zm345 -670c-9,-10 0,2 -12,-17 -44,-71 -46,-96 -123,-154 -285,-213 -762,-32 -762,417 0,163 20,317 126,427 133,136 217,154 407,154 94,0 172,-43 229,-85 58,-43 90,-91 121,-155l11 -19c0,-2 2,-5 3,-7l0 257 177 0 0 -1429 -177 0 0 611z"/>
   <path class="fil4" d="M11506 5904c-120,0 -217,-36 -279,-106 -161,-181 -149,-663 279,-663 269,0 404,296 318,535 -46,130 -167,234 -318,234zm-552 -424c0,163 19,317 125,427 133,136 217,154 407,154 95,0 172,-43 230,-85 58,-43 90,-91 121,-155l10 -19c1,-2 2,-5 4,-7l0 257 177 0 0 -1065 -177 0 0 247c-9,-10 -1,2 -13,-17 -44,-71 -46,-96 -122,-154 -286,-213 -762,-32 -762,417z"/>
   <path class="fil4" d="M10777 3362c0,-286 371,-405 569,-205 56,57 91,146 91,254l-660 0 0 -49zm-188 59l0 89c0,262 220,492 483,492 153,0 265,-12 382,-111 65,-55 150,-158 150,-273l-187 0c-53,229 -302,276 -453,207 -82,-37 -139,-85 -171,-174 -11,-32 -25,-114 -26,-151l847 0c0,-160 7,-289 -115,-427l-24 -26c-203,-194 -551,-186 -745,12 -76,76 -141,213 -141,362z"/>
   <path class="fil4" d="M14058 3362c0,-231 237,-360 464,-278 59,21 65,33 105,73 56,57 91,146 91,254l-660 0 0 -49zm-188 59l0 89c0,262 220,492 483,492 153,0 265,-12 382,-111 65,-55 150,-158 150,-273l-187 0c-18,78 -47,128 -105,171 -170,124 -537,88 -545,-289l847 0c0,-138 12,-202 -49,-326 -12,-24 -24,-48 -39,-69 -11,-15 -13,-17 -27,-32 -194,-220 -567,-220 -769,-14 -76,76 -141,213 -141,362z"/>
   <path class="fil5" d="M9673 6052l187 0c37,0 17,-3 29,-21 0,-2 15,-38 17,-42l476 -1297 -197 0 -105 289c-89,225 -172,495 -262,723 -10,26 -18,51 -25,73 -4,12 -8,26 -13,37 -8,20 -5,16 -18,31l-404 -1153 -197 0c3,36 41,133 56,170 121,306 262,710 378,1031 11,29 21,53 32,86 12,34 12,73 46,73z"/>
   <path class="fil4" d="M15289 5520c0,-113 38,-219 96,-279 109,-112 264,-149 404,-83 88,42 145,100 180,194 38,100 36,216 4,319 -97,308 -553,312 -656,8 -9,-29 -28,-120 -28,-159zm-177 -50c0,220 32,363 211,499 140,107 401,124 561,47 242,-117 292,-301 292,-546 0,-526 -764,-713 -1015,-207 -26,52 -49,130 -49,207z"/>
   <path class="fil5" d="M18255 5520c0,-327 286,-463 499,-362 201,95 245,321 185,513 -112,355 -684,309 -684,-151zm-177 -50c0,155 1,240 89,374 35,54 49,67 89,98 45,36 50,45 114,73 200,86 470,58 627,-98 261,-262 202,-949 -397,-949 -302,0 -522,238 -522,502z"/>
   <path class="fil4" d="M19368 6052l178 0 0 -473 348 411c24,27 36,25 46,62l226 0c-6,-25 -201,-237 -233,-269l-179 -196c-22,-27 -41,-39 -60,-67 29,-56 288,-321 346,-393 43,-54 78,-82 117,-140 -43,0 -86,1 -129,0 -63,0 -78,-10 -111,27 -60,68 -333,401 -371,427l0 -818 -178 0 0 1429z"/>
   <path class="fil5" d="M15092 3184c0,208 74,254 287,315 117,33 291,48 330,153 104,278 -434,309 -459,5l-168 0c5,195 202,345 404,345l79 0c169,0 325,-109 325,-276 0,-101 -10,-159 -97,-228 -102,-81 -288,-92 -414,-137 -30,-11 -65,-28 -88,-50 -15,-15 -19,-19 -27,-42 -103,-277 432,-308 439,-6l177 0c-4,-189 -186,-345 -384,-345l-89 0c-151,0 -315,118 -315,266z"/>
   <path class="fil5" d="M16373 5244c0,208 74,253 287,314 108,31 238,44 302,111 62,65 47,164 -15,218 -112,98 -399,40 -416,-170l-168 0c5,194 202,344 404,344l79 0c169,0 325,-109 325,-275 0,-393 -439,-259 -599,-416 -86,-85 -34,-264 156,-264 134,0 253,87 256,216l177 0c-4,-189 -186,-344 -384,-344l-89 0c-151,0 -315,117 -315,266z"/>
   <polygon class="fil5" points="12944,3992 13122,3992 13122,3381 13624,3381 13624,3244 13122,3244 13122,2771 13713,2771 13713,2623 12944,2623 "/>
   <path class="fil4" d="M14363 6052l217 0c8,-35 35,-98 48,-130 19,-47 34,-85 53,-133l261 -666c17,-43 34,-98 52,-136l-197 0c-10,40 -22,63 -36,103 -40,110 -276,713 -280,755l-335 -858 -197 0 414 1065z"/>
   <path class="fil4" d="M12146 3992l217 0 414 -1064 -197 0c-26,110 -311,800 -316,857l-19 0c-3,-36 -58,-169 -75,-211l-163 -428c-15,-37 -75,-181 -78,-218l-197 0c11,47 33,89 48,130l366 934z"/>
   <path class="fil4" d="M17467 4987l-158 0 0 158 158 0 0 611c0,326 269,296 453,296l0 -158c-337,0 -276,2 -276,-749l276 0 0 -158 -276 0 0 -266 -177 0 0 266z"/>
   <path class="fil4" d="M16186 2928l-158 0 0 158 158 0 0 611c0,326 269,295 453,295l0 -157c-337,0 -276,2 -276,-749l276 0 0 -158 -276 0 0 -266 -177 0 0 266z"/>
   <polygon class="fil5" points="10550,6052 10727,6052 10727,4623 10550,4623 "/>
   <polygon class="fil5" points="13604,6052 13782,6052 13782,4987 13604,4987 "/>
   <path class="fil4" d="M13575 4672c0,161 236,161 236,0 0,-132 -236,-132 -236,0z"/>
   <path class="fil6" d="M1800 3914c21,29 17,15 48,31 23,12 29,18 55,32l456 263c66,34 293,186 358,178l0 -7c-20,-9 -38,-13 -64,-28 -37,-20 1,-14 -49,-26 -32,-16 -101,-50 -122,-75l-543 -310c-61,-38 -120,-67 -178,-91l-26 -6 49 28c2,1 6,7 8,5 1,-2 5,4 8,6z"/>
   <path class="fil7" d="M7211 4771l143 82c30,14 13,6 33,6 -49,-42 -70,-46 -138,-87 -18,-11 -32,-16 -51,-28 -22,-14 -22,-13 -46,-25 -29,-15 -1,1 -25,-16l-315 -184c-96,-52 -137,-101 -219,-104l417 249c41,24 28,5 95,54l64 34c22,14 -8,10 42,19z"/>
   <path class="fil8" d="M1130 3930l-8 24 -31 9c-15,-2 -7,-6 -30,0 -6,23 -1,15 0,29 -18,39 10,12 -29,29l0 1 -6 34 -34 5 4 0 -2 30 18 -4c19,-36 102,-113 127,-135 61,-55 122,-69 179,-96 58,-27 198,-17 266,-11 56,5 49,18 107,31 62,14 34,26 109,38 -3,-2 -7,-8 -8,-6 -2,2 -6,-4 -8,-5l-49 -28c-114,-49 -283,-64 -408,-41 -55,10 -121,42 -169,80 -15,12 -5,6 -28,16z"/>
   <path class="fil9" d="M1298 3825c-17,-3 -4,-5 -28,0l-11 25 -30 3c-29,9 -39,19 -60,30 -1,1 -26,14 -26,14 -34,30 -15,-2 -13,33 23,-10 13,-4 28,-16 48,-38 114,-70 169,-80 125,-23 294,-8 408,41l26 6c-14,-37 -11,-14 -55,-30 -24,-9 -21,-15 -46,-22 -45,-13 -86,-4 -122,-16 -129,-40 -129,11 -240,12z"/>
   <path class="fil10" d="M8160 4938c40,-8 54,-27 79,-54l151 -194c17,-31 12,-14 12,-63l-40 5c-9,61 -2,35 -20,70l-10 21c-21,54 -16,32 -79,106 -2,4 -8,10 -13,16 -18,17 -9,8 -21,18 -71,58 -53,26 -59,75z"/>
   <path class="fil11" d="M8231 3983c29,23 27,17 33,49l39 0c-17,-42 -39,-55 -84,-93 -11,-9 -14,-10 -23,-16 -13,-9 -18,-14 -29,-21 -29,-17 -31,-9 -51,-38l-33 0 3 31 78 41c47,22 25,26 67,47z"/>
   <path class="fil12" d="M8402 4209c-1,-38 -13,-59 -38,-100 -17,-27 -39,-66 -61,-77l-39 0c-6,-32 -4,-26 -33,-49 2,3 5,3 6,9 5,22 39,41 62,75 66,99 -6,31 64,83l2 56 37 3z"/>
   <path class="fil13" d="M963 4103l3 8 -6 47 -36 22 8 9 -8 42 -30 8 0 31 37 -3c5,-19 7,-34 11,-49l46 -85c15,-27 15,-11 24,-46l-18 4 -31 12z"/>
   <path class="fil12" d="M8441 4345c0,-30 3,-44 -5,-71 -8,-29 -19,-37 -33,-55 -8,29 -12,44 -10,79 4,43 8,45 48,47z"/>
   <path class="fil11" d="M7555 4968c37,8 37,22 79,32 42,9 65,20 109,26 -3,-8 5,-25 -45,-35 -23,-4 -53,-2 -69,-8 -32,-11 -7,-15 -52,-28l-61 -27c11,12 13,13 19,19 3,4 5,26 13,14 1,-2 4,5 7,7z"/>
   <path class="fil13" d="M864 4435c25,-7 26,-15 29,-48 4,-28 3,-61 1,-89 -42,31 -30,68 -30,137z"/>
   <path class="fil14" d="M7455 4910c-6,-6 -4,-5 -16,-13 -8,-4 -11,-4 -20,-9 -14,-9 -22,-17 -32,-29 -20,0 -3,8 -33,-6l-143 -82c39,47 133,85 173,110 34,21 9,30 71,29z"/>
   <path class="fil12" d="M8412 4610c8,-4 11,0 20,-7 0,-35 7,-40 9,-73 -32,1 -33,-2 -41,24 -7,23 0,43 12,56z"/>
   <path class="fil15" d="M7555 4968c-3,-2 -6,-9 -7,-7 -8,12 -10,-10 -13,-14 -6,-6 -8,-7 -19,-19l-27 -5c-23,-19 -9,-11 -34,-13 16,33 65,52 100,58z"/>
   <path class="fil11" d="M7455 4910c25,2 11,-6 34,13 -15,-31 0,-17 -33,-33 -31,-15 -16,5 -39,-30l-30 -1c10,12 18,20 32,29 9,5 12,5 20,9 12,8 10,7 16,13z"/>
   <path class="fil16" d="M924 4180l36 -22 6 -47c-32,17 -39,23 -42,69z"/>
   <path class="fil17" d="M1137 4909l-12 -41c-65,-5 -19,-1 -37,11 25,29 9,22 49,30z"/>
   <path class="fil6" d="M894 4239l30 -8 8 -42c-32,14 -34,4 -38,50z"/>
   <path class="fil12" d="M8067 3863c-16,-35 4,-23 -36,-38l1 35 35 3z"/>
   <path class="fil6" d="M992 4061l34 -5 6 -34c-38,16 -25,-5 -40,39z"/>
   <path class="fil6" d="M1091 3963l31 -9 8 -24c-36,3 -24,-13 -39,33z"/>
   <path class="fil9" d="M963 4103l31 -12 2 -30c-30,17 -24,2 -33,42z"/>
   <path class="fil6" d="M1032 4021c39,-17 11,10 29,-29l-29 0 0 29z"/>
   <path class="fil18" d="M1229 3853l30 -3 11 -25c-35,8 -22,3 -41,28z"/>
   <path class="fil19" d="M2604 4357l-122 -75c21,25 90,59 122,75z"/>
  </g>
 </g>
</svg>
