<?xml version="1.0" encoding="UTF-8"?>
<!DOCTYPE svg PUBLIC "-//W3C//DTD SVG 1.1//EN" "http://www.w3.org/Graphics/SVG/1.1/DTD/svg11.dtd">
<!-- Creator: CorelDRAW X6 -->
<svg xmlns="http://www.w3.org/2000/svg" xml:space="preserve" width="210mm" height="84.6666mm" version="1.1" style="shape-rendering:geometricPrecision; text-rendering:geometricPrecision; image-rendering:optimizeQuality; fill-rule:evenodd; clip-rule:evenodd"
viewBox="0 0 21000 8467"
 xmlns:xlink="http://www.w3.org/1999/xlink">
 <defs>
  <style type="text/css">
   <![CDATA[
    .fil1 {fill:#33A853}
    .fil0 {fill:#4687F1}
    .fil6 {fill:#48AA4B}
    .fil15 {fill:#5183DB}
    .fil10 {fill:#66AC44}
    .fil12 {fill:#6C7ACE}
    .fil9 {fill:#7772B9}
    .fil5 {fill:#8DB033}
    .fil11 {fill:#8E6EAF}
    .fil16 {fill:#976695}
    .fil13 {fill:#AD6393}
    .fil8 {fill:#B1B32D}
    .fil7 {fill:#B35972}
    .fil14 {fill:#CAB626}
    .fil18 {fill:#CB546D}
    .fil17 {fill:#D0472D}
    .fil2 {fill:#E94235}
    .fil3 {fill:#FBBB03}
    .fil4 {fill:#FEFEFE}
   ]]>
  </style>
 </defs>
 <g id="Слой_x0020_1">
  <metadata id="CorelCorpID_0Corel-Layer"/>
  <g id="_795161488">
   <path class="fil0" d="M994 4078l-43 89c-22,31 -12,-12 -27,42 -4,15 -6,31 -10,49l-38 3 0 28c2,28 3,61 0,89 -4,34 -4,41 -30,49 0,76 20,82 28,140 12,79 60,161 113,222l83 82c18,-12 -28,-16 33,-10 16,21 10,4 16,40l24 28c5,2 11,4 21,9l23 16c2,1 5,3 6,4l140 78c139,83 343,189 474,275l193 113c11,7 11,7 25,15l313 179c12,7 27,15 38,22 19,12 12,10 36,23l101 57c1,1 4,3 6,4l255 149c119,71 563,344 658,358 162,24 161,24 323,0 95,-14 208,-94 273,-160 56,-56 131,-167 158,-258 37,-129 20,-286 -23,-412 -18,-54 -46,-94 -78,-138l-14 -17c-38,-46 -75,-85 -126,-120l-169 -98c-1,-1 -4,-2 -6,-3l-631 -365c-17,-10 -20,-9 -39,-20l-368 -215c-8,-5 -18,-10 -31,-16 -52,9 -110,-30 -152,-57 -52,-36 -100,-43 -133,-92 -48,4 -22,-16 -72,-30 -35,-8 -26,-1 -42,-26 -10,-1 -27,-2 -38,-11 -24,-18 -9,-11 -19,-30 -30,0 -78,-41 -115,-57 -42,-11 -52,-22 -80,-49 -19,-5 -72,-33 -89,-54 -56,-11 -33,-12 -69,-31 -28,-14 -41,-11 -52,-42 -45,-4 -102,-61 -148,-64 -81,-2 -50,-19 -107,-28 -31,-6 -84,-5 -117,-6 -183,-4 -128,7 -208,32 -49,15 -26,11 -85,40 -48,24 -163,141 -181,174z"/>
   <path class="fil1" d="M6567 4408l14 -2c83,3 132,59 233,110 20,11 9,5 24,14l323 189c65,34 121,87 188,101l9 31 8 0 35 5c15,20 58,43 90,59 48,25 18,20 64,35 89,30 -8,17 113,36 126,20 146,48 290,11 27,-7 32,-4 59,-2 36,5 17,8 47,-8l24 -15c41,-22 30,-8 61,-42 6,-48 -9,-18 35,-59 81,-77 127,-117 160,-208 33,-92 24,-17 35,-54 1,-3 5,-2 8,-4 -19,-60 -23,-122 44,-124l0 -144c-41,-3 -45,-4 -48,-47 -2,-36 1,-50 10,-80l-1 -10 -38 -3 -2 -56c-56,-42 -2,19 -52,-65 -37,-61 -17,-26 -45,-53l-32 -49 -23 -16c-3,-2 -7,-4 -9,-5l-115 -68c-19,-17 -2,-6 -13,-17 -25,-23 -20,-8 -46,-21l-1 -31c-39,-11 4,3 -32,-17 -18,-11 1,-1 -18,-11l-313 -180c-79,-45 -164,-86 -238,-138 -7,-5 -2,-3 -17,-11l-77 -42c-29,-14 -15,-8 -37,-22 -26,-17 -51,-29 -76,-43l-206 -119c-11,-6 -6,-3 -20,-10l-576 -331c-6,-4 -13,-8 -19,-11l-150 -87c-17,-10 -18,-8 -33,-16l-177 -99c-2,-1 -5,-2 -7,-3l-24 -15c-2,-1 -5,-2 -7,-3l-34 -16c-21,-11 2,-1 -18,-11 -10,-4 -2,-2 -22,-8 -1,0 -20,-4 -24,-5 -55,-12 -87,-28 -144,-34 -256,-26 -483,114 -595,339l-68 169c-44,159 30,369 136,492l756 478c23,14 45,27 68,40l225 130c2,1 5,2 7,3l291 173z"/>
   <path class="fil2" d="M1280 3816c82,-1 88,-28 168,-26l158 23c41,5 219,74 259,119 27,7 0,-2 21,7 4,2 19,9 21,10 23,15 17,0 26,32l36 6c36,28 45,25 79,47 41,28 39,6 66,50l-5 -4c43,7 104,49 147,71 40,22 28,25 33,35l33 1c26,32 30,20 70,46 62,41 35,-7 72,56 36,-6 87,49 124,57 22,4 34,-3 39,24 11,18 52,25 74,30 48,-8 151,-79 201,-106l812 -461c9,-5 11,-5 19,-10 2,-1 5,-3 7,-4l124 -73c62,-36 124,-68 176,-120 83,-84 147,-182 179,-294 15,-52 12,-159 11,-227 -2,-62 -22,-90 -37,-140 -3,-11 -2,-13 -6,-24l-21 -38c-76,-139 -207,-273 -367,-314 -65,-17 -141,-30 -211,-26l-192 44c-145,66 -281,151 -418,233l-191 106c-19,10 -20,8 -38,20l-73 45c-16,9 -23,10 -40,20l-454 256c-28,15 -15,8 -37,22l-737 417c-36,23 -81,36 -112,68 -20,21 3,-20 -16,22z"/>
   <path class="fil3" d="M7958 5033c-284,-14 -251,23 -468,-97l-55 -26 -96 -52c-38,-21 -116,-67 -139,-95l-202 -107c-23,-14 12,7 -16,-12l-401 -238 -14 2 -106 61c-4,3 -10,7 -18,12l-239 135c-14,9 -1,1 -18,12 -3,1 -13,9 -18,12l-190 105c-15,8 -20,9 -33,17l-31 19c-2,1 -4,2 -6,3l-265 149c-2,1 -13,8 -18,12l-95 53c-116,74 -247,136 -332,249l-49 60c-2,2 -3,4 -4,6 -65,102 -108,242 -77,367 10,43 13,98 31,136l46 103c72,137 189,237 332,288 124,45 173,34 301,25 40,-3 51,-16 89,-29l994 -545c16,-8 2,0 19,-11 2,-1 13,-8 18,-11l669 -376c13,-7 11,-6 19,-11 27,-17 44,-30 73,-45 8,-4 13,-6 21,-9l278 -162z"/>
   <path class="fil4" d="M9684 3826l-257 0 0 -1046c296,0 614,-35 746,290 56,138 54,317 5,451 -73,204 -253,305 -494,305zm-434 157c347,0 725,52 954,-180 217,-218 238,-555 130,-824 -90,-223 -352,-357 -591,-357l-493 0 0 1361z"/>
   <path class="fil4" d="M12801 5897c-120,0 -217,-36 -279,-106 -161,-181 -149,-663 279,-663 270,0 404,296 318,535 -46,130 -167,234 -318,234zm345 -671c-9,-10 -1,2 -13,-17 -44,-70 -45,-96 -122,-153 -286,-214 -763,-33 -763,417 0,163 19,317 126,427 133,137 217,155 407,155 95,0 172,-44 230,-86 58,-43 90,-91 121,-155l10 -19c1,-2 2,-5 4,-7l0 257 177 0 0 -1430 -177 0 0 611z"/>
   <path class="fil4" d="M11499 5897c-120,0 -217,-36 -279,-106 -161,-181 -149,-663 279,-663 270,0 404,296 318,535 -46,130 -167,234 -318,234zm-553 -424c0,163 20,317 126,427 133,137 217,155 407,155 95,0 172,-44 230,-86 58,-43 90,-91 121,-155l10 -19c1,-2 3,-5 4,-7l0 257 177 0 0 -1065 -177 0 0 246c-9,-10 0,2 -13,-17 -44,-70 -45,-96 -122,-153 -286,-214 -763,-33 -763,417z"/>
   <path class="fil4" d="M10769 3352c0,-286 372,-405 570,-205 56,57 91,146 91,254l-661 0 0 -49zm-188 59l0 89c0,263 220,493 484,493 153,0 265,-12 382,-111 65,-55 150,-158 150,-273l-187 0c-54,229 -303,276 -454,207 -82,-37 -138,-85 -170,-175 -12,-32 -26,-113 -27,-151l848 0c0,-160 7,-289 -115,-427l-24 -26c-203,-194 -551,-186 -746,12 -75,76 -141,213 -141,362z"/>
   <path class="fil4" d="M14053 3352c0,-231 238,-360 465,-278 59,22 66,33 105,73 57,57 91,146 91,254l-661 0 0 -49zm-187 59l0 89c0,263 220,493 483,493 153,0 265,-12 382,-111 66,-55 151,-158 151,-273l-188 0c-18,77 -47,128 -105,170 -170,125 -537,89 -546,-289l849 0c0,-138 12,-202 -49,-325 -13,-25 -25,-49 -40,-70 -11,-15 -13,-17 -26,-32 -194,-221 -568,-220 -771,-14 -75,76 -140,213 -140,362z"/>
   <path class="fil4" d="M9664 6045l188 0c36,0 16,-3 28,-21 1,-1 15,-38 17,-42l477 -1298 -197 0 -106 289c-89,225 -172,496 -262,724 -10,25 -18,50 -25,73 -4,12 -8,26 -12,37 -9,20 -6,16 -19,31l-404 -1154 -198 0c3,35 42,133 57,170 121,307 262,711 378,1032 11,29 21,53 33,86 11,34 11,73 45,73z"/>
   <path class="fil4" d="M15286 5512c0,-113 38,-219 96,-279 109,-112 264,-149 404,-83 89,42 146,101 181,194 37,101 36,217 4,320 -97,308 -553,313 -657,7 -9,-28 -28,-119 -28,-159zm-177 -49c0,220 31,363 211,499 141,107 401,124 562,47 242,-117 292,-301 292,-546 0,-526 -764,-714 -1016,-207 -26,51 -49,130 -49,207z"/>
   <path class="fil4" d="M18255 5512c0,-327 286,-463 500,-362 201,95 245,321 184,514 -111,355 -684,309 -684,-152zm-178 -49c0,154 2,239 90,374 35,54 49,67 89,98 45,36 50,46 114,73 201,87 471,59 628,-98 261,-262 203,-950 -398,-950 -302,0 -523,238 -523,503z"/>
   <path class="fil4" d="M19370 6045l177 0 0 -474 348 412c24,28 37,25 47,62l226 0c-6,-24 -202,-237 -234,-269l-178 -196c-22,-27 -42,-39 -61,-68 29,-55 289,-321 347,-393 43,-54 78,-82 117,-139 -43,0 -86,0 -129,-1 -63,0 -79,-10 -111,27 -60,68 -334,402 -372,427l0 -818 -177 0 0 1430z"/>
   <path class="fil4" d="M15089 3175c0,208 74,253 287,314 117,34 291,49 330,153 104,279 -434,310 -459,6l-168 0c4,195 202,345 404,345l79 0c170,0 326,-109 326,-276 0,-101 -10,-159 -97,-228 -102,-82 -289,-93 -415,-138 -30,-11 -65,-27 -88,-50 -15,-14 -19,-19 -27,-42 -103,-277 433,-308 439,-5l178 0c-4,-190 -187,-346 -385,-346l-88 0c-152,0 -316,118 -316,267z"/>
   <path class="fil4" d="M16371 5236c0,208 74,254 287,315 109,31 239,44 303,111 62,65 47,164 -15,218 -112,98 -400,40 -417,-171l-168 0c5,195 202,346 405,346l79 0c169,0 325,-109 325,-276 0,-393 -439,-259 -600,-417 -86,-84 -34,-264 156,-264 135,0 254,87 257,217l177 0c-4,-190 -187,-345 -384,-345l-89 0c-151,0 -316,117 -316,266z"/>
   <polygon class="fil4" points="12939,3983 13116,3983 13116,3372 13619,3372 13619,3234 13116,3234 13116,2760 13708,2760 13708,2612 12939,2612 "/>
   <path class="fil4" d="M14359 6045l217 0c8,-35 35,-98 48,-130 19,-47 35,-85 54,-134l260 -666c17,-43 34,-98 52,-135l-197 0c-9,40 -21,62 -36,102 -39,111 -276,714 -280,756l-335 -858 -197 0 414 1065z"/>
   <path class="fil4" d="M12140 3983l217 0 414 -1065 -197 0c-26,110 -311,800 -316,858l-20 0c-3,-36 -57,-169 -74,-211l-164 -428c-15,-38 -74,-182 -77,-219l-197 0c11,47 32,89 47,130l367 935z"/>
   <path class="fil4" d="M17466 4980l-158 0 0 157 158 0 0 612c0,326 270,296 454,296l0 -158c-337,0 -276,2 -276,-750l276 0 0 -157 -276 0 0 -267 -178 0 0 267z"/>
   <path class="fil4" d="M16184 2918l-158 0 0 158 158 0 0 612c0,326 269,295 453,295l0 -157c-337,0 -276,2 -276,-750l276 0 0 -158 -276 0 0 -266 -177 0 0 266z"/>
   <polygon class="fil4" points="10542,6045 10720,6045 10720,4615 10542,4615 "/>
   <polygon class="fil4" points="13600,6045 13777,6045 13777,4980 13600,4980 "/>
   <path class="fil4" d="M13570 4664c0,161 237,161 237,0 0,-133 -237,-133 -237,0z"/>
   <path class="fil5" d="M7200 4763c50,30 99,57 158,88l-9 -31c-67,-14 -123,-67 -188,-101l-323 -189c-15,-9 -4,-3 -24,-14 -101,-51 -150,-107 -233,-110l401 238c28,19 -7,-2 16,12l202 107z"/>
   <path class="fil6" d="M8149 4930c79,-16 181,-168 219,-231 34,-55 16,-31 35,-94 -11,-39 -25,-77 28,-80l0 -44c-67,2 -63,64 -44,124 -3,2 -7,1 -8,4 -11,37 -2,-38 -35,54 -33,91 -79,131 -160,208 -44,41 -29,11 -35,59z"/>
   <path class="fil7" d="M1280 3816c-17,-3 -4,-5 -28,0l-11 24 -30 4c-28,9 -39,18 -60,30 -2,1 -24,13 -25,14 -21,20 -15,6 -13,33 13,-6 10,-4 22,-12 148,-107 226,-95 407,-86 56,2 103,8 150,43 46,3 103,60 148,64l25 2c-40,-45 -218,-114 -259,-119l-158 -23c-80,-2 -86,25 -168,26z"/>
   <path class="fil8" d="M7435 4910l55 26c217,120 184,83 468,97 23,-6 15,-2 32,-11 36,-23 -20,17 12,-9 13,-12 4,-5 15,-18 -27,-2 -32,-5 -59,2 -144,37 -164,9 -290,-11 -121,-19 -24,-6 -113,-36 -46,-15 -16,-10 -64,-35 -32,-16 -75,-39 -90,-59l-35 -5 12 16c29,33 37,19 57,43z"/>
   <path class="fil9" d="M1113 3921l-9 24 -31 9c-14,-2 -6,-6 -29,0 -6,23 -2,15 0,29 -19,39 9,12 -30,29l0 1 -6 34 -33 5 4 0 -3 30 18 -4c18,-33 133,-150 181,-174 59,-29 36,-25 85,-40 80,-25 25,-36 208,-32 33,1 86,0 117,6 57,9 26,26 107,28 -47,-35 -94,-41 -150,-43 -181,-9 -259,-21 -407,86 -12,8 -9,6 -22,12z"/>
   <path class="fil10" d="M8392 4200c-1,-53 -59,-146 -99,-181 -60,-22 0,-19 -70,-45l32 49c28,27 8,-8 45,53 50,84 -4,23 52,65l2 56 38 3z"/>
   <path class="fil11" d="M2701 4409l0 -9c-22,-5 -63,-12 -74,-30 -54,-21 2,6 -18,-7 -13,-9 -14,-10 -21,-17 -37,-8 -88,-63 -124,-57 -38,-33 -1,-18 -48,-29 33,49 81,56 133,92 42,27 100,66 152,57z"/>
   <path class="fil10" d="M8200 3958l-13 -34 -14 -18c-11,-12 -9,-7 -18,-21l-30 3 -30 -5 -9 -28c-38,-17 -33,-30 -70,-39l1 31c26,13 21,-2 46,21 11,11 -6,0 13,17l115 68c2,1 6,3 9,5z"/>
   <path class="fil12" d="M945 4094l3 8 -6 47 -36 23 8 9 -8 42 -30 7 0 31 38 -3c4,-18 6,-34 10,-49 15,-54 5,-11 27,-42l43 -89 -18 4 -31 12z"/>
   <path class="fil10" d="M8431 4337c0,-43 4,-64 -17,-99l-21 -28c-9,30 -12,44 -10,80 3,43 7,44 48,47z"/>
   <path class="fil13" d="M2130 4106c37,16 85,57 115,57 45,27 -2,22 44,23 -5,-10 7,-13 -33,-35 -43,-22 -104,-64 -147,-71 2,3 -6,37 14,19 1,-1 4,5 7,7z"/>
   <path class="fil12" d="M846 4427c26,-8 26,-15 30,-49 3,-28 2,-61 0,-89 -42,31 -30,69 -30,138z"/>
   <path class="fil13" d="M2050 4057l64 27c-27,-44 -25,-22 -66,-50 -34,-22 -43,-19 -79,-47l-8 16c17,21 70,49 89,54z"/>
   <path class="fil13" d="M2302 4204c21,7 7,0 22,8 19,11 8,6 20,18 50,14 24,34 72,30 47,11 10,-4 48,29 -37,-63 -10,-15 -72,-56 -40,-26 -44,-14 -70,-46l-33 -1c7,14 0,11 13,18z"/>
   <path class="fil14" d="M7435 4910c-20,-24 -28,-10 -57,-43l-12 -16 -8 0c-59,-31 -108,-58 -158,-88 23,28 101,74 139,95l96 52z"/>
   <path class="fil5" d="M8200 3958l23 16c70,26 10,23 70,45 -10,-22 0,-8 -17,-29 -42,-52 -48,-15 -62,-66l-27 0 13 34z"/>
   <path class="fil11" d="M1961 4003l8 -16 -36 -6c-25,-20 -14,-12 -43,-28 -19,-11 -14,-5 -25,-21l-25 -2c11,31 24,28 52,42 36,19 13,20 69,31z"/>
   <path class="fil10" d="M8403 4605c19,-16 11,-3 19,-29 5,-15 8,-32 9,-51 -53,3 -39,41 -28,80z"/>
   <path class="fil13" d="M906 4172l36 -23 6 -47c-32,18 -39,24 -42,70z"/>
   <path class="fil15" d="M1119 4901c-6,-36 0,-19 -16,-40 -61,-6 -15,-2 -33,10 26,29 9,22 49,30z"/>
   <path class="fil16" d="M876 4230l30 -7 8 -42c-32,14 -34,3 -38,49z"/>
   <path class="fil16" d="M975 4052l33 -5 6 -34c-38,16 -25,-5 -39,39z"/>
   <path class="fil16" d="M1073 3954l31 -9 9 -24c-37,3 -24,-13 -40,33z"/>
   <path class="fil7" d="M945 4094l31 -12 3 -30c-31,17 -24,3 -34,42z"/>
   <path class="fil7" d="M1933 3981c-9,-32 -3,-17 -26,-32 -2,-1 -17,-8 -21,-10 -21,-9 6,0 -21,-7 11,16 6,10 25,21 29,16 18,8 43,28z"/>
   <path class="fil9" d="M2130 4106c-3,-2 -6,-8 -7,-7 -20,18 -12,-16 -14,-19l5 4 -64 -27c28,27 38,38 80,49z"/>
   <path class="fil9" d="M2302 4204c-13,-7 -6,-4 -13,-18 -46,-1 1,4 -44,-23 10,19 -5,12 19,30 11,9 28,10 38,11z"/>
   <path class="fil5" d="M8125 3888c-20,-32 4,-18 -39,-33l9 28 30 5z"/>
   <path class="fil16" d="M1014 4012c39,-17 11,10 30,-29l-30 0 0 29z"/>
   <path class="fil17" d="M1211 3844l30 -4 11 -24c-34,8 -22,2 -41,28z"/>
   <path class="fil9" d="M2344 4230c-12,-12 -1,-7 -20,-18 -15,-8 -1,-1 -22,-8 16,25 7,18 42,26z"/>
   <path class="fil18" d="M2627 4370c-5,-27 -17,-20 -39,-24 7,7 8,8 21,17 20,13 -36,-14 18,7z"/>
  </g>
 </g>
</svg>
