<?xml version="1.0" encoding="UTF-8"?>
<!DOCTYPE svg PUBLIC "-//W3C//DTD SVG 1.1//EN" "http://www.w3.org/Graphics/SVG/1.1/DTD/svg11.dtd">
<!-- Creator: CorelDRAW X6 -->
<svg xmlns="http://www.w3.org/2000/svg" xml:space="preserve" width="127mm" height="84.6666mm" version="1.1" style="shape-rendering:geometricPrecision; text-rendering:geometricPrecision; image-rendering:optimizeQuality; fill-rule:evenodd; clip-rule:evenodd"
viewBox="0 0 12700 8467"
 xmlns:xlink="http://www.w3.org/1999/xlink">
 <defs>
  <style type="text/css">
   <![CDATA[
    .fil24 {fill:#181818}
    .fil3 {fill:#282828}
    .fil4 {fill:#2A2A2A}
    .fil13 {fill:#2B2B2B}
    .fil17 {fill:#2C2C2C}
    .fil0 {fill:#414141}
    .fil1 {fill:#5F5F5F}
    .fil20 {fill:#747474}
    .fil8 {fill:#767676}
    .fil11 {fill:#787878}
    .fil10 {fill:#7A7A7A}
    .fil6 {fill:#7C7C7C}
    .fil15 {fill:#7E7E7E}
    .fil21 {fill:#868686}
    .fil16 {fill:#8A8A8A}
    .fil26 {fill:#8F8F8F}
    .fil19 {fill:#939393}
    .fil22 {fill:#959595}
    .fil23 {fill:#9B9B9B}
    .fil5 {fill:#9D9D9D}
    .fil25 {fill:#A1A1A1}
    .fil9 {fill:#A6A6A6}
    .fil7 {fill:#A8A8A8}
    .fil12 {fill:#B0B0B0}
    .fil14 {fill:#B4B4B4}
    .fil18 {fill:#B6B6B6}
    .fil2 {fill:#CDCDCD}
   ]]>
  </style>
 </defs>
 <g id="Слой_x0020_1">
  <metadata id="CorelCorpID_0Corel-Layer"/>
  <g id="_794687408">
   <path class="fil0" d="M3521 4346c34,-8 -3,-18 39,-7 42,12 17,-3 36,32 -8,5 10,29 -37,16 -92,-25 7,0 -38,-41zm-66 -29c34,-25 32,-21 59,0 -41,33 55,23 -23,16 -37,-4 -12,2 -36,-16zm-88 -55c14,-10 -22,-25 32,-15 46,8 11,-7 30,29 -15,12 27,29 -32,18 -62,-11 -14,-11 -30,-32zm-178 -135c-19,36 25,45 -57,23 16,-42 -18,-26 23,-36 67,-16 7,-6 34,13zm-441 -202c-43,-11 -4,8 -22,-29 15,-10 -28,-32 44,-14 40,10 7,-1 20,28 -6,4 18,30 -42,15zm-106 -70c29,-19 27,-22 59,0 -15,22 29,29 -34,26 -49,-2 -10,-4 -25,-26zm-65 -40c26,-20 22,-26 57,0 -27,18 -26,23 -57,0zm-52 -81c37,2 30,28 33,58l-63 0c-2,-37 -13,-60 30,-58zm-56 -14c-23,39 -4,40 -69,21l4 -50c72,2 39,-9 65,29zm-130 -19c-55,-7 -21,-12 -31,-36 9,-6 -18,-26 44,-17 38,6 25,20 32,31 -1,0 8,28 -45,22zm-95 -99c52,4 37,19 42,23 -12,22 7,39 -56,35 -79,-4 -36,-10 -51,-35 10,-7 -9,-30 65,-23zm-312 13c-117,0 -135,1 -164,-46 25,-28 284,-24 340,2 -21,52 -97,44 -176,44zm-231 -21c55,22 32,6 39,44 -43,28 -40,19 -93,12l-22 34c-29,27 -27,9 -65,29 -3,1 -6,3 -9,5l-153 147c-23,25 -2,3 -26,27l-102 132c-1,3 -3,6 -5,9 -1,3 -3,6 -4,9 -4,8 -6,16 -12,27 -2,3 -4,6 -5,8 -72,121 -8,114 -86,120 0,11 -1,26 -1,36 -1,37 -2,-5 0,29 -11,72 7,58 -40,75 0,215 16,142 41,319 8,55 -4,17 19,63 0,0 12,21 14,26l89 156c2,2 4,5 6,7l232 216c15,8 13,5 28,13l153 91c81,40 153,91 233,134 39,21 71,42 111,65 28,17 32,17 62,32l231 136c23,13 4,2 26,15l368 216c2,1 6,3 8,5 3,1 6,3 9,5l621 356c2,2 6,3 8,5l197 116c2,1 6,3 8,5 3,1 6,3 9,5 2,1 6,3 8,5l205 121c14,7 10,5 27,14l678 394c21,11 39,16 58,23 137,51 96,28 224,61 46,12 114,13 168,8 53,-4 28,-6 77,-18 128,-32 170,-13 334,-127l229 -232 96 -189c28,-57 58,-241 50,-313l-66 -301c-18,-52 -38,-82 -67,-124 -105,-159 -249,-266 -420,-354l-59 -35c-24,-14 -11,-6 -34,-21 -155,-101 -390,-226 -553,-315 -26,-14 -14,-8 -34,-21l-25 -15c-3,-1 -7,-3 -9,-5l-85 -51c-153,-100 -475,-269 -654,-377 -33,-20 -19,-22 -69,-24 -13,0 -17,3 -27,0 -26,-7 -16,-4 -32,-15 19,-18 -26,-19 59,-23 68,14 26,5 75,-23 3,-2 6,-4 9,-5l235 -132c25,-13 29,-11 55,-27l672 -386c20,-11 35,-16 54,-27l416 -236c3,-2 17,-11 25,-16l77 -45c155,-80 293,-194 381,-352 12,-21 17,-31 29,-52 78,-147 88,-310 75,-494 -4,-56 -17,-83 -36,-127l-46 -117c-108,-191 -304,-406 -532,-445 -99,-18 -192,-43 -294,-30 -53,7 -61,19 -136,27 -58,6 -77,22 -122,41l-292 156c-10,5 -21,13 -25,15l-726 414c-38,22 -61,38 -104,59l-52 29c-23,14 -3,3 -26,15 -13,7 -13,5 -28,13l-594 342c-3,2 -6,4 -9,5l-17 10c-37,21 -64,35 -106,56l-459 262c-2,1 -6,3 -8,5l-459 270z"/>
   <path class="fil1" d="M8989 4401l87 17c48,17 38,17 61,47 44,0 44,0 77,34 18,8 42,13 59,23 8,5 13,11 20,19l10 16c71,8 42,36 133,57 26,80 10,16 -8,42l30 -10c60,11 55,14 76,56l6 -9c59,9 57,8 73,54l25 -3c43,16 31,17 75,40 35,18 32,14 55,43 58,14 68,28 105,62l11 1c39,17 4,2 34,16 2,1 19,10 27,14 27,14 21,9 44,26l42 37c55,3 17,-3 70,30 21,13 32,20 47,29 53,32 52,14 101,66 17,4 28,3 46,17 34,27 17,20 28,39l5 -11c83,-2 53,22 104,40 30,10 86,12 124,23 123,37 169,10 276,22 14,-33 21,-38 98,-37 57,1 53,0 94,-20l27 13c113,-29 199,-111 280,-190 50,-50 66,-83 104,-141 17,-25 14,-22 31,-50 54,-89 18,-54 57,-133 54,-110 30,-269 30,-422l-47 -3 -6 -88c11,-49 6,-1 -1,-57l-47 -3 -1 -75 7 -7 -45 -4 -9 -57c12,-30 24,-11 0,-31 -55,-15 -21,-3 -50,-28 -14,-11 -25,-23 -35,-32l-60 -75c-44,-14 -111,-89 -183,-103l-5 -43c-23,-23 1,-11 -33,-5 -45,-8 -50,4 -47,-49 -57,-6 -13,-1 -44,-18l-256 -152c-113,-62 -427,-228 -520,-294 -2,-2 -5,-4 -7,-6l-527 -302c-2,-1 -6,-3 -8,-5l-223 -130c-24,-12 -30,-14 -54,-27 -31,-18 -65,-42 -93,-56l-1085 -612c-3,-1 -6,-3 -9,-4l-234 -79c-119,-18 -276,-28 -372,11 -153,62 -279,127 -385,253 -71,84 -150,198 -185,303l-42 121c-18,68 -17,228 0,297 9,41 14,39 21,60 52,140 56,192 168,321l574 389c209,125 464,252 664,382l205 120c95,57 328,207 410,231z"/>
   <path class="fil2" d="M10902 5276c-111,-10 -216,0 -326,-8 -57,-4 -179,-54 -231,-72 -75,-31 -59,-8 -107,-66l9 2c-93,-15 6,9 -101,-45l-159 -98c-1,-5 -5,-5 -7,-7 -35,-6 -39,-12 -76,-34 -14,-8 -20,-11 -32,-22 -19,-18 -11,-13 -21,-25 -63,-6 -18,1 -29,-18 -30,-6 -18,0 -48,-13l-66 -22 -15 -39 0 -3c-20,0 -13,4 -35,-4 -33,-12 13,6 -25,-16l-135 -74c-31,-16 -9,0 -31,-18 -17,-14 -9,-12 -16,-25 -40,-4 -121,-54 -145,-78 -30,-6 -34,-1 -59,-19 -17,-12 -22,-26 -32,-41l-6 7 -45 -6c-12,-18 -15,-26 -28,-47l-1 -5c-18,4 -5,44 -91,-48l-55 -12c-170,74 -392,223 -558,316 -12,7 -23,11 -27,14 -20,9 -12,5 -27,13l-355 202c-27,14 -28,12 -53,28l-105 59c-37,22 -60,39 -103,60 -32,16 -17,7 -44,23l-258 149c-173,94 -334,222 -438,391l-42 80c-74,162 -76,351 -34,538l46 117c23,71 71,143 119,206 83,111 197,192 319,251 31,15 25,9 60,21 59,21 42,31 115,35l299 -1c60,-4 116,-32 174,-56 127,-54 249,-135 369,-201l616 -347c30,-18 25,-17 51,-31l581 -328c3,-2 7,-3 10,-4l815 -460c23,-12 3,-1 26,-15l260 -148c29,-17 68,-45 97,-56z"/>
   <path class="fil3" d="M1522 3693l-3 33 -35 -1c-33,14 -21,10 -52,38 -7,6 -12,11 -21,19l-55 54c-112,118 -115,161 -175,272 -26,48 -23,6 -23,89 78,-6 14,1 86,-120 1,-2 3,-5 5,-8 6,-11 8,-19 12,-27 1,-3 3,-6 4,-9 2,-3 4,-6 5,-9l102 -132c24,-24 3,-2 26,-27l153 -147c3,-2 6,-4 9,-5 38,-20 36,-2 65,-29l22 -34c53,7 50,16 93,-12 -7,-38 16,-22 -39,-44 -76,9 -46,10 -96,43 -28,19 -61,33 -83,56z"/>
   <path class="fil4" d="M1768 3569c29,47 47,46 164,46 79,0 155,8 176,-44 -56,-26 -315,-30 -340,-2z"/>
   <path class="fil5" d="M10902 5276c50,-18 46,-23 81,-45 -85,-9 -91,13 -151,7 -2,1 2,6 -25,12 -48,11 -208,2 -250,-7 -70,-14 -154,-48 -215,-74l3 27c52,18 174,68 231,72 110,8 215,-2 326,8z"/>
   <path class="fil6" d="M10342 5169c61,26 145,60 215,74 42,9 202,18 250,7 27,-6 23,-11 25,-12 -107,-12 -153,15 -276,-22 -38,-11 -94,-13 -124,-23 -51,-18 -21,-42 -104,-40 0,22 -6,18 14,16z"/>
   <path class="fil6" d="M11259 3798c-3,-53 11,6 -4,-51 -65,-15 -42,-21 -88,-48l-43 -24c-44,-27 7,-11 -53,-23l5 43c72,14 139,89 183,103z"/>
   <path class="fil7" d="M10247 5132l2 -24 -200 -102c-13,-11 -10,-12 -18,-23l-51 -1c2,2 6,2 7,7l159 98c107,54 8,30 101,45z"/>
   <path class="fil8" d="M10832 5238c60,6 66,-16 151,-7l55 -6 13 -31 -27 -13c-41,20 -37,21 -94,20 -77,-1 -84,4 -98,37z"/>
   <path class="fil9" d="M9498 4712l135 74c38,22 -8,4 25,16 22,8 15,4 35,4l-17 -20 -32 -31 -6 -11 -25 3 -58 -36c-2,-1 -6,-3 -7,-9 -2,-5 -5,-6 -8,-9l-6 9 -70 -31c22,40 -17,5 34,41z"/>
   <path class="fil6" d="M11404 3933c-2,-4 -4,-14 -5,-12 -2,2 -5,-8 -6,-11l-47 -65c-61,-75 -54,-51 -87,-47l60 75c10,9 21,21 35,32 29,25 -5,13 50,28z"/>
   <path class="fil3" d="M2179 3625c15,25 -28,31 51,35 63,4 44,-13 56,-35 -5,-4 10,-19 -42,-23 -74,-7 -55,16 -65,23z"/>
   <path class="fil4" d="M2308 3665c10,24 -24,29 31,36 53,6 44,-22 45,-22 -7,-11 6,-25 -32,-31 -62,-9 -35,11 -44,17z"/>
   <path class="fil10" d="M9428 4656c18,-26 34,38 8,-42 -91,-21 -62,-49 -133,-57l-2 13c50,21 25,17 62,38 14,8 17,5 28,12 40,26 10,0 37,36z"/>
   <path class="fil6" d="M10249 5108c-49,-52 -48,-34 -101,-66 -15,-9 -26,-16 -47,-29 -53,-33 -15,-27 -70,-30 8,11 5,12 18,23l200 102z"/>
   <path class="fil4" d="M2495 3792l63 0c-3,-30 4,-56 -33,-58 -43,-2 -32,21 -30,58z"/>
   <path class="fil11" d="M11553 4258l-15 -76c-8,-9 -31,-12 -38,-15l6 88 47 3z"/>
   <path class="fil4" d="M2400 3741c65,19 46,18 69,-21 -26,-38 7,-27 -65,-29l-4 50z"/>
   <path class="fil9" d="M9451 4669l7 -23 -30 10c-27,-36 3,-10 -37,-36 -11,-7 -14,-4 -28,-12 -37,-21 -12,-17 -62,-38l5 21c24,24 105,74 145,78z"/>
   <path class="fil12" d="M9980 4982c-9,-23 -1,-11 -16,-41l-68 -18c-21,-10 -21,-8 -45,-22 10,12 2,7 21,25 12,11 18,14 32,22 37,22 41,28 76,34z"/>
   <path class="fil13" d="M3560 4339c-42,-11 -5,-1 -39,7 45,41 -54,16 38,41 47,13 29,-11 37,-16 -19,-35 6,-20 -36,-32z"/>
   <path class="fil3" d="M2726 3896c18,37 -21,18 22,29 60,15 36,-11 42,-15 -13,-29 20,-18 -20,-28 -72,-18 -29,4 -44,14z"/>
   <path class="fil3" d="M3399 4247c-54,-10 -18,5 -32,15 16,21 -32,21 30,32 59,11 17,-6 32,-18 -19,-36 16,-21 -30,-29z"/>
   <path class="fil8" d="M9676 4786l17 20 64 18c3,1 7,2 11,3 -23,-29 -20,-25 -55,-43 -44,-23 -32,-24 -75,-40l6 11 32 31z"/>
   <path class="fil8" d="M11499 4110c0,-40 0,-26 -15,-49 -29,-44 -4,-7 -33,-29l1 75 47 3z"/>
   <path class="fil6" d="M9768 4846l54 37 51 6c-37,-34 -47,-48 -105,-62l-3 21 3 -2z"/>
   <path class="fil12" d="M9306 4591l-5 -21 2 -13 -38 -5c-19,-8 -27,-11 -50,-21 10,15 15,29 32,41 25,18 29,13 59,19z"/>
   <path class="fil8" d="M11458 4025c0,-54 -21,-48 -54,-61l9 57 45 4z"/>
   <path class="fil8" d="M9265 4552l38 5 -10 -16c-7,-8 -12,-14 -20,-19 -17,-10 -41,-15 -59,-23l-5 17 56 36z"/>
   <path class="fil7" d="M9135 4480l2 -15c-45,-6 -16,0 -61,-31l-32 -2c86,92 73,52 91,48z"/>
   <path class="fil14" d="M10345 5196l-3 -27c-20,2 -14,6 -14,-16l-5 11 -85 -34c48,58 32,35 107,66z"/>
   <path class="fil3" d="M3189 4127c-27,-19 33,-29 -34,-13 -41,10 -7,-6 -23,36 82,22 38,13 57,-23z"/>
   <path class="fil15" d="M9464 4671l70 31c-21,-42 -16,-45 -76,-56l-7 23 13 2z"/>
   <path class="fil4" d="M2642 3855c15,22 -24,24 25,26 63,3 19,-4 34,-26 -32,-22 -30,-19 -59,0z"/>
   <path class="fil16" d="M10238 5130l85 34c-11,-19 6,-12 -28,-39 -18,-14 -29,-13 -46,-17l-2 24 -9 -2z"/>
   <path class="fil17" d="M1117 4337c47,-17 29,-3 40,-75 -26,12 -28,-20 -32,35l-8 40z"/>
   <path class="fil4" d="M3669 4427l0 -38c-85,4 -40,5 -59,23 16,11 6,8 32,15 10,3 14,0 27,0z"/>
   <polygon class="fil18" points="9774,4870 9768,4846 9765,4848 9693,4809 9708,4848 "/>
   <path class="fil6" d="M9896 4923l68 18 25 5c-23,-17 -17,-12 -44,-26 -8,-4 -25,-13 -27,-14 -30,-14 5,1 -34,-16l12 33z"/>
   <polygon class="fil19" points="9044,4432 9076,4434 9076,4418 8989,4401 8989,4420 "/>
   <path class="fil14" d="M9209 4538l0 -22c-48,-7 -25,-6 -73,-31 13,21 16,29 28,47l45 6z"/>
   <path class="fil20" d="M11038 3647c-22,-43 4,-27 -47,-49 -3,53 2,41 47,49z"/>
   <path class="fil20" d="M9613 4747c-16,-46 -14,-45 -73,-54 3,3 6,4 8,9 1,6 5,8 7,9l58 36z"/>
   <path class="fil21" d="M9980 4982l51 1 -42 -37 -25 -5c15,30 7,18 16,41z"/>
   <path class="fil22" d="M9851 4901c24,14 24,12 45,22l-12 -33 -11 -1 -51 -6c11,19 -34,12 29,18z"/>
   <path class="fil8" d="M9214 4499c-33,-34 -33,-34 -77,-34l-2 15 79 19z"/>
   <path class="fil3" d="M3455 4317c24,18 -1,12 36,16 78,7 -18,17 23,-16 -27,-21 -25,-25 -59,0z"/>
   <path class="fil6" d="M9137 4465c-23,-30 -13,-30 -61,-47l0 16c45,31 16,25 61,31z"/>
   <path class="fil19" d="M9209 4516l5 -17 -79 -19 1 5c48,25 25,24 73,31z"/>
   <path class="fil3" d="M2577 3815c31,23 30,18 57,0 -35,-26 -31,-20 -57,0z"/>
   <path class="fil23" d="M9765 4848l3 -21c-4,-1 -8,-2 -11,-3l-64 -18 0 3 72 39z"/>
   <path class="fil24" d="M1484 3725l35 1 3 -33c-35,12 -24,-1 -38,32z"/>
   <path class="fil25" d="M9822 4883l-54 -37 6 24c30,13 18,7 48,13z"/>
   <path class="fil26" d="M9215 4531c23,10 31,13 50,21l-56 -36 0 22 6 -7z"/>
   <path class="fil14" d="M9498 4712c-51,-36 -12,-1 -34,-41l-13 -2c7,13 -1,11 16,25 22,18 0,2 31,18z"/>
   <polygon class="fil19" points="9676,4786 9644,4755 "/>
  </g>
 </g>
</svg>
