<?xml version="1.0" encoding="UTF-8"?>
<!DOCTYPE svg PUBLIC "-//W3C//DTD SVG 1.1//EN" "http://www.w3.org/Graphics/SVG/1.1/DTD/svg11.dtd">
<!-- Creator: CorelDRAW X6 -->
<svg xmlns="http://www.w3.org/2000/svg" xml:space="preserve" width="210mm" height="84.6666mm" version="1.1" style="shape-rendering:geometricPrecision; text-rendering:geometricPrecision; image-rendering:optimizeQuality; fill-rule:evenodd; clip-rule:evenodd"
viewBox="0 0 21000 8467"
 xmlns:xlink="http://www.w3.org/1999/xlink">
 <defs>
  <style type="text/css">
   <![CDATA[
    .fil26 {fill:#181818}
    .fil5 {fill:#282828}
    .fil6 {fill:#2A2A2A}
    .fil15 {fill:#2B2B2B}
    .fil19 {fill:#2C2C2C}
    .fil4 {fill:#323232}
    .fil3 {fill:#333333}
    .fil0 {fill:#414141}
    .fil1 {fill:#5F5F5F}
    .fil22 {fill:#747474}
    .fil10 {fill:#767676}
    .fil13 {fill:#787878}
    .fil12 {fill:#7A7A7A}
    .fil8 {fill:#7C7C7C}
    .fil17 {fill:#7E7E7E}
    .fil23 {fill:#868686}
    .fil18 {fill:#8A8A8A}
    .fil28 {fill:#8F8F8F}
    .fil21 {fill:#939393}
    .fil24 {fill:#959595}
    .fil25 {fill:#9B9B9B}
    .fil7 {fill:#9D9D9D}
    .fil27 {fill:#A1A1A1}
    .fil11 {fill:#A6A6A6}
    .fil9 {fill:#A8A8A8}
    .fil14 {fill:#B0B0B0}
    .fil16 {fill:#B4B4B4}
    .fil20 {fill:#B6B6B6}
    .fil2 {fill:#CDCDCD}
   ]]>
  </style>
 </defs>
 <g id="Слой_x0020_1">
  <metadata id="CorelCorpID_0Corel-Layer"/>
  <g id="_795201616">
   <path class="fil0" d="M2596 4343c25,-5 -2,-13 28,-4 31,8 13,-3 26,23 -5,3 7,21 -26,12 -67,-19 5,-1 -28,-31zm-47 -21c24,-18 22,-15 42,0 -29,25 40,17 -17,12 -27,-3 -8,1 -25,-12zm-65 -39c11,-7 -16,-18 23,-11 34,6 9,-5 23,21 -11,9 19,20 -24,13 -45,-8 -10,-9 -22,-23zm-128 -98c-14,26 18,32 -42,16 12,-30 -13,-18 17,-26 48,-12 5,-4 25,10zm-320 -147c-31,-7 -3,6 -16,-21 11,-7 -21,-23 32,-10 29,8 5,-1 14,20 -4,4 13,22 -30,11zm-77 -50c21,-14 19,-17 43,0 -11,15 20,20 -25,18 -36,-1 -7,-2 -18,-18zm-48 -30c20,-14 17,-18 42,0 -20,13 -19,17 -42,0zm-37 -58c27,1 22,20 24,42l-46 0c-1,-27 -9,-44 22,-42zm-40 -11c-17,29 -3,30 -50,16l2 -37c53,2 29,-6 48,21zm-95 -13c-39,-5 -15,-9 -22,-26 6,-5 -14,-19 32,-13 27,4 18,15 23,23 -1,0 5,20 -33,16zm-69 -72c38,3 27,14 31,16 -9,17 5,29 -41,26 -57,-3 -26,-7 -37,-26 7,-5 -6,-21 47,-16zm-226 9c-85,1 -98,1 -119,-33 19,-20 206,-17 246,2 -15,37 -70,31 -127,31zm-167 -15c40,16 23,5 28,32 -32,21 -29,14 -68,9l-16 24c-20,20 -19,7 -47,21 -2,1 -4,3 -6,4l-111 107c-17,18 -1,2 -19,19l-74 96c-1,2 -2,5 -3,7 -1,1 -2,4 -3,6 -3,6 -5,12 -9,20 -1,2 -3,4 -4,6 -52,87 -5,82 -62,87 0,8 -1,18 -1,25 0,28 -1,-3 1,22 -8,52 4,42 -29,54 0,156 11,103 29,231 6,40 -3,12 14,46 0,0 8,15 10,19l64 113c2,1 4,3 5,5l168 156c11,6 9,4 20,10l111 66c59,29 111,66 169,97 28,15 51,30 80,47 21,13 24,13 46,24l167 98c17,9 3,1 19,11l267 156c1,1 4,3 6,4 2,1 4,2 6,4l450 258c2,1 4,2 6,3l143 84c2,1 4,3 6,4 2,1 4,3 6,4 2,1 4,2 6,3l149 88c10,5 7,4 19,10l492 286c15,8 28,12 42,17 99,37 70,20 162,44 33,8 83,9 122,6 38,-4 20,-4 55,-13 93,-24 124,-10 243,-92l166 -169 70 -137c20,-41 41,-174 35,-227l-47 -218c-13,-37 -28,-59 -48,-90 -77,-115 -182,-193 -305,-256l-43 -26c-17,-10 -8,-4 -25,-15 -112,-73 -282,-164 -401,-228 -18,-10 -10,-7 -24,-15l-19 -11c-1,-1 -4,-3 -6,-4l-61 -37c-111,-73 -344,-195 -475,-273 -23,-15 -13,-16 -50,-18 -9,1 -12,3 -19,0 -19,-5 -11,-2 -24,-11 15,-13 -18,-13 43,-17 50,11 19,4 55,-16 2,-1 5,-3 6,-4l171 -95c18,-10 20,-9 39,-20l488 -280c14,-8 25,-11 39,-20l301 -171c3,-1 13,-8 18,-11l56 -33c113,-58 213,-140 277,-255 8,-15 12,-22 21,-38 57,-106 64,-225 54,-358 -3,-41 -12,-60 -26,-92l-33 -85c-79,-138 -221,-294 -386,-322 -72,-13 -140,-31 -213,-22 -38,5 -44,14 -99,19 -42,5 -55,17 -88,30l-212 113c-7,4 -15,10 -18,11l-527 300c-27,16 -44,28 -75,43l-38 21c-16,10 -2,2 -18,11 -10,5 -10,4 -21,10l-430 248c-2,1 -5,2 -7,3l-12 8c-27,15 -47,24 -77,40l-332 190c-2,1 -5,2 -7,3l-332 196z"/>
   <path class="fil1" d="M6560 4383l64 13c34,12 27,12 43,34 33,0 32,0 56,25 14,5 31,9 43,16 6,4 10,8 15,14l7 12c52,5 31,25 97,41 18,58 7,11 -6,30l21 -7c44,8 40,10 56,41l4 -7c43,7 41,6 53,40l18 -3c31,11 22,13 55,29 25,13 22,10 39,31 42,10 49,20 76,45l8 1c29,12 3,1 25,11 2,1 14,8 19,11 20,10 15,6 33,19l30 27c39,2 12,-3 51,21 15,10 23,14 34,21 38,23 37,10 73,48 12,3 20,2 34,12 24,20 12,15 19,28l4 -8c60,-1 39,17 76,29 21,8 62,9 90,17 88,27 122,7 199,16 10,-24 16,-28 71,-27 42,1 39,1 69,-14l20 9c81,-21 144,-80 202,-138 37,-35 48,-60 76,-101 12,-19 10,-16 22,-37 39,-64 14,-39 42,-96 39,-80 22,-196 22,-307l-35 -1 -4 -64c8,-36 4,-1 -1,-42l-34 -2 -1 -54 6 -5 -33 -3 -7 -42c9,-21 18,-8 0,-22 -40,-10 -15,-2 -36,-20 -10,-8 -18,-17 -25,-24l-44 -54c-32,-10 -80,-65 -133,-74l-3 -32c-17,-17 1,-8 -24,-3 -33,-6 -36,2 -34,-36 -42,-4 -10,0 -32,-13l-185 -110c-82,-45 -310,-165 -377,-213 -2,-1 -4,-3 -6,-4l-381 -219c-2,-1 -5,-3 -7,-4l-161 -94c-17,-9 -22,-10 -39,-20 -23,-13 -48,-30 -68,-41l-786 -443c-2,-1 -5,-2 -7,-3l-169 -57c-87,-14 -201,-21 -270,8 -111,45 -202,91 -279,183 -52,61 -109,143 -135,219l-30 89c-13,48 -12,165 0,215 7,29 10,28 15,43 38,102 41,139 122,233l416 282c152,90 337,183 481,277l149 87c69,41 238,150 297,167z"/>
   <path class="fil2" d="M7947 5018c-80,-7 -156,0 -236,-6 -42,-3 -130,-39 -167,-52 -55,-22 -43,-6 -78,-48l6 2c-67,-12 5,6 -73,-34l-115 -71c-1,-3 -4,-3 -5,-4 -26,-5 -28,-9 -56,-25 -9,-6 -14,-8 -22,-16 -14,-13 -9,-10 -16,-18 -45,-4 -13,1 -21,-13 -22,-4 -13,0 -34,-10l-49 -16 -10 -28 0 -2c-15,0 -9,3 -26,-3 -24,-9 10,4 -17,-12l-98 -53c-23,-12 -7,0 -23,-13 -12,-11 -7,-9 -12,-18 -28,-4 -87,-39 -105,-57 -21,-4 -24,-1 -42,-13 -13,-9 -16,-20 -24,-30l-4 5 -32 -4c-9,-14 -12,-20 -21,-35l-1 -4c-13,3 -3,32 -66,-34l-40 -9c-123,54 -284,162 -404,229 -9,5 -16,8 -20,10 -14,7 -9,4 -19,10l-258 146c-19,11 -20,9 -38,21l-76 42c-27,16 -44,28 -75,44 -23,11 -12,5 -32,16l-187 109c-125,68 -242,160 -317,283l-30 58c-55,117 -56,255 -26,390l34 85c17,51 51,103 86,149 61,81 143,140 231,182 23,11 19,6 44,16 43,15 30,22 83,24l217 0c44,-3 84,-23 126,-41 92,-39 181,-97 268,-145l447 -252c21,-13 18,-12 37,-22l421 -238c2,-1 5,-2 7,-3l591 -334c16,-8 2,0 19,-10l188 -108c21,-12 50,-33 70,-40z"/>
   <path class="fil3" d="M9669 3811l-256 0 0 -1043c295,0 613,-36 744,289 56,138 54,316 6,450 -74,204 -253,304 -494,304zm-433 157c347,0 724,51 952,-179 216,-218 238,-555 129,-823 -89,-223 -351,-356 -589,-356l-492 0 0 1358z"/>
   <path class="fil3" d="M12778 5877c-119,0 -216,-36 -278,-106 -161,-180 -149,-662 278,-662 270,0 404,296 318,535 -46,129 -167,233 -318,233zm345 -669c-9,-10 -1,2 -13,-17 -44,-71 -45,-96 -122,-153 -285,-213 -761,-33 -761,416 0,162 19,316 125,425 133,137 217,155 407,155 94,0 172,-43 229,-85 58,-43 90,-91 121,-155l10 -19c1,-1 2,-4 4,-6l0 255 177 0 0 -1426 -177 0 0 610z"/>
   <path class="fil3" d="M11480 5877c-120,0 -216,-36 -279,-106 -160,-180 -148,-662 279,-662 269,0 403,296 317,535 -46,129 -167,233 -317,233zm-551 -423c0,162 19,316 125,425 133,137 217,155 406,155 94,0 172,-43 229,-85 58,-43 90,-91 121,-155l10 -19c1,-1 2,-4 4,-6l0 255 177 0 0 -1062 -177 0 0 246c-9,-10 -1,2 -13,-17 -43,-71 -45,-96 -122,-153 -285,-213 -760,-33 -760,416z"/>
   <path class="fil3" d="M10751 3338c0,-285 372,-404 569,-204 56,57 91,145 91,254l-660 0 0 -50zm-187 59l0 89c0,262 220,492 483,492 153,0 264,-13 381,-111 65,-55 150,-158 150,-273l-187 0c-53,229 -302,275 -453,207 -82,-37 -138,-85 -170,-174 -11,-32 -26,-113 -26,-151l846 0c0,-159 6,-288 -115,-426l-24 -26c-203,-194 -550,-186 -745,12 -75,76 -140,213 -140,361z"/>
   <path class="fil3" d="M14028 3338c0,-230 237,-358 464,-277 58,21 65,33 104,73 56,57 91,145 91,254l-659 0 0 -50zm-187 59l0 89c0,262 219,492 482,492 153,0 264,-13 381,-111 65,-55 150,-158 150,-273l-187 0c-18,78 -47,128 -105,171 -169,124 -536,88 -544,-289l846 0c0,-138 12,-201 -49,-325 -12,-24 -24,-48 -39,-69 -11,-15 -13,-17 -27,-32 -193,-220 -566,-220 -768,-14 -75,76 -140,213 -140,361z"/>
   <path class="fil4" d="M9649 6024l187 0c37,0 17,-3 29,-21 1,-1 15,-37 17,-42l476 -1294 -197 0 -105 288c-89,225 -172,495 -262,722 -10,26 -18,51 -25,73 -4,12 -8,26 -12,37 -9,20 -6,16 -19,31l-403 -1151 -197 0c3,35 41,132 56,170 121,305 262,708 378,1029 11,29 21,52 32,86 11,34 11,72 45,72z"/>
   <path class="fil3" d="M15258 5493c0,-113 38,-219 95,-278 109,-112 264,-149 403,-83 89,42 146,100 181,194 37,100 36,216 3,319 -96,307 -551,311 -654,7 -10,-29 -28,-120 -28,-159zm-177 -49c0,220 31,362 210,498 141,106 401,124 560,47 242,-117 292,-301 292,-545 0,-525 -762,-712 -1013,-207 -26,51 -49,130 -49,207z"/>
   <path class="fil4" d="M18219 5493c0,-326 285,-462 499,-361 200,95 244,320 184,513 -111,353 -683,308 -683,-152zm-177 -49c0,154 1,239 89,373 35,54 50,67 89,98 45,35 50,45 114,73 200,86 469,58 626,-98 261,-262 202,-948 -397,-948 -301,0 -521,238 -521,502z"/>
   <path class="fil3" d="M19331 6024l177 0 0 -472 347 410c24,28 37,26 47,62l226 0c-7,-24 -202,-236 -234,-268l-178 -196c-21,-26 -41,-39 -60,-67 29,-55 288,-320 345,-392 44,-54 78,-81 117,-139 -43,0 -85,0 -128,0 -63,-1 -79,-11 -111,26 -60,68 -333,401 -371,426l0 -816 -177 0 0 1426z"/>
   <path class="fil4" d="M15061 3161c0,208 74,253 286,314 117,33 291,49 330,153 103,278 -433,309 -459,6l-167 0c4,194 201,344 403,344l79 0c169,0 325,-109 325,-276 0,-100 -10,-159 -97,-228 -102,-81 -288,-92 -414,-137 -30,-11 -65,-27 -88,-50 -14,-14 -18,-19 -27,-41 -102,-277 432,-308 439,-6l177 0c-4,-189 -186,-344 -384,-344l-88 0c-151,0 -315,117 -315,265z"/>
   <path class="fil4" d="M16340 5218c0,207 74,253 286,313 108,31 239,44 302,111 62,65 47,164 -15,218 -112,98 -398,40 -416,-170l-167 0c4,194 201,344 403,344l79 0c169,0 325,-109 325,-275 0,-392 -439,-258 -599,-415 -86,-85 -33,-264 156,-264 134,0 253,87 256,216l177 0c-4,-189 -186,-344 -384,-344l-88 0c-151,0 -315,117 -315,266z"/>
   <polygon class="fil4" points="12916,3968 13093,3968 13093,3358 13595,3358 13595,3220 13093,3220 13093,2748 13683,2748 13683,2600 12916,2600 "/>
   <path class="fil3" d="M14333 6024l216 0c8,-35 35,-97 48,-129 19,-47 35,-85 54,-133l259 -665c18,-43 35,-98 52,-135l-196 0c-10,40 -22,62 -36,102 -39,110 -276,712 -279,754l-335 -856 -196 0 413 1062z"/>
   <path class="fil3" d="M12119 3968l216 0 414 -1063 -197 0c-26,110 -310,799 -315,856l-20 0c-3,-36 -57,-169 -74,-210l-163 -428c-15,-37 -74,-180 -77,-218l-197 0c11,48 32,89 48,130l365 933z"/>
   <path class="fil3" d="M17432 4962l-157 0 0 157 157 0 0 610c0,326 269,295 453,295l0 -157c-337,0 -276,2 -276,-748l276 0 0 -157 -276 0 0 -266 -177 0 0 266z"/>
   <path class="fil3" d="M16153 2905l-157 0 0 158 157 0 0 610c0,325 269,295 453,295l0 -157c-337,0 -276,2 -276,-748l276 0 0 -158 -276 0 0 -265 -177 0 0 265z"/>
   <polygon class="fil4" points="10525,6024 10702,6024 10702,4598 10525,4598 "/>
   <polygon class="fil4" points="13575,6024 13752,6024 13752,4962 13575,4962 "/>
   <path class="fil3" d="M13546 4647c0,160 236,160 236,0 0,-132 -236,-132 -236,0z"/>
   <path class="fil5" d="M1147 3870l-2 24 -26 -1c-24,10 -15,8 -37,28 -5,4 -9,8 -16,14l-39 39c-82,86 -84,117 -128,197 -19,35 -16,5 -16,65 57,-5 10,0 62,-87 1,-2 3,-4 4,-6 4,-8 6,-14 9,-20 1,-2 2,-5 3,-6 1,-2 2,-5 3,-7l74 -96c18,-17 2,-1 19,-19l111 -107c2,-1 4,-3 6,-4 28,-14 27,-1 47,-21l16 -24c39,5 36,12 68,-9 -5,-27 12,-16 -28,-32 -56,7 -34,8 -70,32 -21,13 -44,23 -60,40z"/>
   <path class="fil6" d="M1325 3780c21,34 34,34 119,33 57,0 112,6 127,-31 -40,-19 -227,-22 -246,-2z"/>
   <path class="fil7" d="M7947 5018c36,-14 33,-17 59,-33 -61,-7 -66,10 -110,5 -1,1 2,4 -18,9 -35,8 -150,1 -181,-5 -50,-10 -112,-35 -156,-54l3 20c37,13 125,49 167,52 80,6 156,-1 236,6z"/>
   <path class="fil8" d="M7541 4940c44,19 106,44 156,54 31,6 146,13 181,5 20,-5 17,-8 18,-9 -77,-9 -111,11 -199,-16 -28,-8 -69,-9 -90,-17 -37,-12 -16,-30 -76,-29 0,16 -4,13 10,12z"/>
   <path class="fil8" d="M8206 3946c-2,-39 8,4 -3,-37 -47,-11 -30,-15 -64,-35l-31 -17c-32,-19 6,-8 -38,-17l3 32c53,9 101,64 133,74z"/>
   <path class="fil9" d="M7472 4914l2 -18 -145 -74c-10,-8 -7,-9 -13,-16l-37 -1c1,1 4,1 5,4l115 71c78,40 6,22 73,34z"/>
   <path class="fil10" d="M7896 4990c44,5 49,-12 110,-5l40 -4 10 -23 -20 -9c-30,15 -27,15 -69,14 -55,-1 -61,3 -71,27z"/>
   <path class="fil11" d="M6930 4609l98 53c27,16 -7,3 17,12 17,6 11,3 26,3l-12 -15 -24 -22 -4 -8 -18 3 -42 -27c-2,-1 -5,-2 -6,-6 -1,-4 -3,-5 -5,-7l-4 7 -51 -23c15,29 -13,4 25,30z"/>
   <path class="fil8" d="M8311 4044c-1,-3 -3,-10 -4,-9 0,2 -3,-6 -4,-8l-33 -47c-45,-54 -40,-37 -64,-34l44 54c7,7 15,16 25,24 21,18 -4,10 36,20z"/>
   <path class="fil5" d="M1623 3820c11,19 -20,23 37,26 46,3 32,-9 41,-26 -4,-2 7,-13 -31,-16 -53,-5 -40,11 -47,16z"/>
   <path class="fil6" d="M1717 3850c7,17 -17,21 22,26 38,4 32,-16 33,-16 -5,-8 4,-19 -23,-23 -46,-6 -26,8 -32,13z"/>
   <path class="fil12" d="M6879 4568c13,-19 24,28 6,-30 -66,-16 -45,-36 -97,-41l-1 9c36,15 17,12 45,27 10,6 12,4 20,9 29,19 7,0 27,26z"/>
   <path class="fil8" d="M7474 4896c-36,-38 -35,-25 -73,-48 -11,-7 -19,-11 -34,-21 -39,-24 -12,-19 -51,-21 6,7 3,8 13,16l145 74z"/>
   <path class="fil6" d="M1852 3942l46 0c-2,-22 3,-41 -24,-42 -31,-2 -23,15 -22,42z"/>
   <path class="fil13" d="M8420 4279l-12 -55c-5,-6 -22,-8 -27,-10l4 64 35 1z"/>
   <path class="fil6" d="M1784 3905c47,14 33,13 50,-16 -19,-27 5,-19 -48,-21l-2 37z"/>
   <path class="fil11" d="M6895 4578l5 -17 -21 7c-20,-26 2,-7 -27,-26 -8,-5 -10,-3 -20,-9 -28,-15 -9,-12 -45,-27l3 15c18,18 77,53 105,57z"/>
   <path class="fil14" d="M7279 4805c-6,-17 0,-8 -12,-30l-49 -13c-15,-7 -15,-6 -33,-16 7,8 2,5 16,18 8,8 13,10 22,16 28,16 30,20 56,25z"/>
   <path class="fil15" d="M2624 4339c-30,-9 -3,-1 -28,4 33,30 -39,12 28,31 33,9 21,-9 26,-12 -13,-26 5,-15 -26,-23z"/>
   <path class="fil5" d="M2020 4017c13,27 -15,14 16,21 43,11 26,-7 30,-11 -9,-21 15,-12 -14,-20 -53,-13 -21,3 -32,10z"/>
   <path class="fil5" d="M2507 4272c-39,-7 -12,4 -23,11 12,14 -23,15 22,23 43,7 13,-4 24,-13 -14,-26 11,-15 -23,-21z"/>
   <path class="fil10" d="M7059 4662l12 15 46 13c2,0 6,1 8,2 -17,-21 -14,-18 -39,-31 -33,-16 -24,-18 -55,-29l4 8 24 22z"/>
   <path class="fil10" d="M8380 4172c0,-29 0,-19 -11,-35 -21,-32 -3,-5 -24,-21l1 54 34 2z"/>
   <path class="fil8" d="M7125 4706l39 27 37 4c-27,-25 -34,-35 -76,-45l-2 16 2 -2z"/>
   <path class="fil14" d="M6790 4521l-3 -15 1 -9 -27 -5c-14,-5 -20,-7 -37,-14 8,10 11,21 24,30 18,12 21,9 42,13z"/>
   <path class="fil10" d="M8351 4111c0,-40 -16,-35 -40,-45l7 42 33 3z"/>
   <path class="fil10" d="M6761 4492l27 5 -7 -12c-5,-6 -9,-10 -15,-14 -12,-7 -29,-11 -43,-16l-3 12 41 25z"/>
   <path class="fil9" d="M6666 4440l1 -10c-32,-5 -11,0 -43,-23l-24 -1c63,66 53,37 66,34z"/>
   <path class="fil16" d="M7544 4960l-3 -20c-14,1 -10,4 -10,-12l-4 8 -61 -24c35,42 23,26 78,48z"/>
   <path class="fil5" d="M2356 4185c-20,-14 23,-22 -25,-10 -30,8 -5,-4 -17,26 60,16 28,10 42,-16z"/>
   <path class="fil17" d="M6905 4579l51 23c-16,-31 -12,-33 -56,-41l-5 17 10 1z"/>
   <path class="fil6" d="M1959 3988c11,16 -18,17 18,18 45,2 14,-3 25,-18 -24,-17 -22,-14 -43,0z"/>
   <path class="fil18" d="M7466 4912l61 24c-7,-13 5,-8 -19,-28 -14,-10 -22,-9 -34,-12l-2 18 -6 -2z"/>
   <path class="fil19" d="M854 4337c33,-12 21,-2 29,-54 -20,8 -21,-15 -24,25l-5 29z"/>
   <path class="fil6" d="M2703 4402l0 -28c-61,4 -28,4 -43,17 13,9 5,6 24,11 7,3 10,1 19,0z"/>
   <polygon class="fil20" points="7130,4723 7125,4706 7123,4708 7071,4679 7081,4707 "/>
   <path class="fil8" d="M7218 4762l49 13 19 4c-18,-13 -13,-9 -33,-19 -5,-3 -17,-10 -19,-11 -22,-10 4,1 -25,-11l9 24z"/>
   <polygon class="fil21" points="6600,4406 6624,4407 6624,4396 6560,4383 6560,4397 "/>
   <path class="fil16" d="M6720 4483l0 -16c-35,-5 -18,-4 -53,-23 9,15 12,21 21,35l32 4z"/>
   <path class="fil22" d="M8046 3837c-16,-31 3,-20 -34,-36 -2,38 1,30 34,36z"/>
   <path class="fil22" d="M7013 4635c-12,-34 -10,-33 -53,-40 2,2 4,3 5,7 1,4 4,5 6,6l42 27z"/>
   <path class="fil23" d="M7279 4805l37 1 -30 -27 -19 -4c12,22 6,13 12,30z"/>
   <path class="fil24" d="M7185 4746c18,10 18,9 33,16l-9 -24 -8 -1 -37 -4c8,14 -24,9 21,13z"/>
   <path class="fil10" d="M6723 4455c-24,-25 -23,-25 -56,-25l-1 10 57 15z"/>
   <path class="fil5" d="M2549 4322c17,13 -2,9 25,12 57,5 -12,13 17,-12 -20,-15 -18,-18 -42,0z"/>
   <path class="fil8" d="M6667 4430c-16,-22 -9,-22 -43,-34l0 11c32,23 11,18 43,23z"/>
   <path class="fil21" d="M6720 4467l3 -12 -57 -15 1 4c35,19 18,18 53,23z"/>
   <path class="fil5" d="M1911 3958c23,17 22,13 42,0 -25,-18 -22,-14 -42,0z"/>
   <path class="fil25" d="M7123 4708l2 -16c-2,-1 -6,-2 -8,-2l-46 -13 0 2 52 29z"/>
   <path class="fil26" d="M1119 3893l26 1 2 -24c-26,9 -17,0 -28,23z"/>
   <path class="fil27" d="M7164 4733l-39 -27 5 17c21,10 12,6 34,10z"/>
   <path class="fil28" d="M6724 4478c17,7 23,9 37,14l-41 -25 0 16 4 -5z"/>
   <path class="fil16" d="M6930 4609c-38,-26 -10,-1 -25,-30l-10 -1c5,9 0,7 12,18 16,13 0,1 23,13z"/>
   <polygon class="fil21" points="7059,4662 7035,4640 "/>
  </g>
 </g>
</svg>
