<?xml version="1.0" encoding="utf-8"?>
<!-- Generator: Adobe Illustrator 19.2.1, SVG Export Plug-In . SVG Version: 6.00 Build 0)  -->
<svg version="1.1" id="Слой_1" xmlns="http://www.w3.org/2000/svg" xmlns:xlink="http://www.w3.org/1999/xlink" x="0px" y="0px"
	 viewBox="0 0 830 636.7" style="enable-background:new 0 0 830 636.7;" xml:space="preserve">
<style type="text/css">
	.st0{fill:none;}
</style>
<polygon points="699.6,225.3 630.6,328.7 628.5,331.7 626.4,328.7 555.1,225.3 534.5,225.3 534.5,412.3 559.5,412.3 559.5,291.3 
	559.5,283.7 564,289.8 628.4,377 687.4,289.9 692,283.1 692,291.3 692,412.3 717.5,412.3 717.5,225.3 "/>
<g>
	<path d="M471.5,243.7c-18.9-13.9-41.7-18.4-56.8-18.4c-15.3,0-38.4,4.4-57.7,18.3c-19.1,13.8-34.5,37-34.5,75.2
		s15.4,61.4,34.6,75.2c19.3,13.9,42.5,18.3,58.1,18.3c15.1,0,37.7-4.5,56.5-18.4c18.7-13.8,33.8-37.1,33.8-75.1
		C505.5,280.8,490.3,257.5,471.5,243.7z M462.3,369.3c-11.6,11.8-28,18-47.1,18c-19.1,0-36-5.6-48.2-17.2
		c-12.2-11.6-19.4-28.8-19.4-51.3c0-21.1,6.8-38.2,18.8-50.1c11.9-11.9,28.8-18.4,48.4-18.4c20.8,0,37.3,7.1,48.6,19.4
		c11.3,12.2,17.2,29.4,17.2,49.1C480.5,340.3,473.9,357.5,462.3,369.3z"/>
</g>
<g>
	<path class="st0" d="M243.9,263.8c-14.3-10.2-31-13.5-40.3-13.5h-39.2h-18.2h-5.6H139h-0.4h-0.1h0h0h0h0H136v2.5v132v2.5h2.5h0h0h0
		h0h0h0h0h0h0h0h0h0h0h0h0h0h0h0h0h0h0h0h0h0h0h0h0h0h0h0h0h0h0h0h0h0h0h0h0h0h0h0h0h0h0h0h0h0h0h0h0h0h0h0h0h0h0h0h0h0h0h0.1h0.1
		h0.1h0.1h0.1h0.1h0.1h0.1h0.1h0.1h0.1h0.1h0.1h0.1h0.1h0.1h0.1h0.1h0.1h0.1h0.1h0.1h0.1h0.1h0.1h0.1h0.1h0.1h0.1h0.1h0.1h0.1h0.1
		h0.1h0.1h0.1h0.1h0.1h0.1h0.1h0.1h0.1h0.1h0.1h0.1h0.1h0.1h0.1h0.1h0.1h0.1h0.1h0.1h0.1h0.1h0.1h0.1h0.1h0.1h0.1h0.1h0.1h0.1h0.1
		h0.1h0.1h0.1h0.1h0.1h0.1h0.1h0.1h0.1h0.1h0.1h0.1h0.1h0.1h0.1h0.1h0.1h0.1h0.1h0.1h0.1h0.1h0.1h0.1h0.1h0.1h0.1h0.1h0.1h0.1h0.1
		h0.1h0.1h0.1h0.1h0.1h0.1h0.1h0.1h0.1h0.1h0.1h0.1h0.1h0.1h0.1h0.1h0.1h0.1h0.1h0.1h0.1h0.1h0.1h0.1h0.1h0.1h0.1h0.1h0.1h0.1h0.1
		h0.1h0.1h0.1h0.1h0.1h0.1h0.1h0.1h0.1h0.1h0.1h0.1h0.1h0.1h0.1h0.1h0.1h0.1h0.1h0.1h0.1h0.1h0.1h0.1h0.1h0.1h0.1h0.1h0.1h0.1h0.1
		h0.1h0.1h0.1h0.1h0.1h0.1h0.1h0.1h0.1h0.1h0.1h0.1h0.1h0.1h0.1h0.1h0.1h0.1h0.1h0.1h0.1h0.1h0.1h0.1h0.1h0.1h0.1h0.1h0.1h0.1h0.1
		h0.1h0.1h0.1h0.1h0.2h0.2h0.2h0.2h0.2h0.2h0.2h0.2h0.2h0.2h0.2h0.2h0.2h0.2h0.2h0.2h0.2h0.2h0.2h0.2h0.2h0.2h0.2h0.2h0.2h0.2h0.2
		h0.2h0.2h0.2h0.2h0.2h0.2h0.2h0.2h0.2h0.2h0.2h0.2h0.2h0.2h0.2h0.2h0.2h0.2h0.2h0.2h0.2h0.2h0.2h0.2h0.2h0.2h0.2h0.2h0.2h0.2h0.2
		h0.2h0.2h0.2h0.2h0.2h0.2h0.2h0.2h0.2h0.2h0.2h0.2h0.2h0.2h0.2h0.2h0.2h0.2h0.2h0.2h0.2h0.2h0.2h0.2h0.2h0.2h0.2h0.2h0.2h0.2h0.2
		h0.2h0.2h0.2h0.2h0.2h0.2h0.2h0.2h0.2h0.2h0.2h0.2h0.2h0.2h0.2h0.2h0.2h0.2h0.2h0.2h0.2h0.2h0.2h0.2h0.2h0.2h0.2h0.2h0.2h0.2h0.2
		h0.2h0.2h0.2h0.2h0.2h0.2h0.2h0.2h0.2h0.2h0.2h0.2h0.2h0.2h0.2h0.2h0.2h0.2h0.2h0.2h0.2h0.2h0.2h0.2h0.2h0.2h0.2h0.2h0.2h0.2h0.2
		h0.2h0.2h0.2h0.2h0.2h0.2h0.2h0.2h0.2h0.2h0.2h0.2h0.2h0.2h0.2h0.2h0.2h0.2h0.2h0.2h0.2h0.2h0.2h0.2h0.2h0.2h0.2h0.2h0.2h0.2h0.2
		h0.2h0.2h0.2h0.2h0.2h0.2h0.2h0.2h0.2h0.2h0.2h0.2h0.2h0.2h0.2h0.2h0.2h0.2h0.2h0.2h0.2h0.2h0.2h0.2h0.2h0.2h0.2h0.2h0.2h0.2h0.2
		h0.2h0.2h0.2h0.2h0.2h0.2h0.2h0.2h0.2h0.2h0.2h0.2h0.2h0.2h0.2h0.2h0.2h0.2h0.2h0.2h0.2h0.2h0.2h0.2h0.2h0.2h0.2h0.2h0.2h0.2h0.2
		h0.2h0.2h0.2h0.2h0.1h0.1h0.1h0.1h0.1h0.1h0.1h0.1h0.1h0.1h0.1c12.9,0,29.1-3.1,42.4-13.3c13.4-10.3,23.5-27.5,24.3-54.8
		C270.1,291.5,258.3,274.1,243.9,263.8z"/>
	<path d="M260.6,246.7c-19-15-41.9-21.4-57-21.4h-93v187h0.1h0.1h0.1h0.1h0.1h0.1h0.1h0.1h0.1h0.1h0.1h0.1h0.1h0.1h0.1h0.1h0.1h0.1
		h0.1h0.1h0.1h0.1h0.1h0.1h0.1h0.1h0.1h0.1h0.1h0.1h0.1h0.1h0.1h0.1h0.1h0.1h0.1h0.1h0.1h0.1h0.1h0.1h0.1h0.1h0.1h0.1h0.1h0.1h0.1
		h0.1h0.1h0.1h0.1h0.1h0.1h0.1h0.1h0.1h0.1h0.1h0.1h0.1h0.1h0.1h0.1h0.1h0.1h0.1h0.1h0.1h0.1h0.1h0.1h0.1h0.1h0.1h0.1h0.1h0.1h0.1
		h0.1h0.1h0.1h0.1h0.1h0.1h0.1h0.1h0.1h0.1h0.1h0.1h0.1h0.1h0.1h0.1h0.1h0.1h0.1h0.1h0.1h0.1h0.1h0.1h0.1h0.1h0.1h0.1h0.2h0.2h0.2
		h0.2h0.2h0.2h0.2h0.2h0.2h0.2h0.2h0.2h0.2h0.2h0.2h0.2h0.2h0.2h0.2h0.2h0.2h0.2h0.2h0.2h0.2h0.2h0.2h0.2h0.2h0.2h0.2h0.2h0.2h0.2
		h0.2h0.2h0.2h0.2h0.2h0.2h0.2h0.2h0.2h0.2h0.2h0.2h0.2h0.2h0.2h0.2h0.2h0.2h0.2h0.2h0.2h0.2h0.2h0.2h0.2h0.2h0.2h0.2h0.2h0.2h0.2
		h0.2h0.2h0.2h0.2h0.2h0.2h0.2h0.2h0.2h0.2h0.2h0.2h0.2h0.2h0.2h0.2h0.2h0.2h0.2h0.2h0.2h0.2h0.2h0.2h0.2h0.2h0.2h0.2h0.2h0.2h0.2
		h0.2h0.2h0.2h0.2h0.2h0.2h0.2h0.2h0.2h0.2h0.2h0.2h0.2h0.2h0.2h0.2h0.2h0.2h0.2h0.2h0.2h0.2h0.2h0.2h0.2h0.2h0.2h0.2h0.2h0.2h0.2
		h0.2h0.2h0.2h0.2h0.2h0.2h0.2h0.2h0.2h0.2h0.2h0.2h0.2h0.2h0.2h0.2h0.2h0.2h0.2h0.2h0.2h0.2h0.2h0.2h0.2h0.2h0.2h0.2h0.2h0.2h0.2
		h0.2h0.2h0.2h0.2h0.2h0.2h0.2h0.2h0.2h0.2h0.2h0.2h0.2h0.2h0.2h0.2h0.2h0.2h0.2h0.2h0.2h0.2h0.2h0.2h0.2h0.2h0.2h0.2h0.2h0.2h0.2
		h0.2h0.2h0.2h0.2h0.2h0.2h0.2h0.2h0.2h0.2h0.2h0.2h0.2h0.2h0.2h0.2h0.2h0.2h0.2h0.2h0.2h0.2h0.2h0.2h0.2h0.2h0.2h0.2h0.2h0.2h0.2
		h0.2h0.2h0.2h0.2h0.2h0.2h0.2h0.2h0.2h0.2h0.2h0.2h0.2h0.2h0.2h0.2h0.2h0.2h0.2h0.2h0.2h0.2h0.2h0.2h0.2h0.2h0.2h0.2h0.2h0.2h0.2
		h0.2h0.2h0.2h0.2h0.2h0.2h0.2h0.2h0.2h0.2h0.2h0.2h0.2h0.2h0.2h0.2h0.2h0.2h0.2h0.2h0.2h0.2h0.2h0.2h0.2h0.2h0.2h0.2h0.2h0.2h0.2
		h0.2h0.2h0.2h0.2h0.2h0.2h0.2h0.2h0.2h0.2h0.2h0.2h0.2h0.2h0.2h0.2h0.2h0.2h0.2h0.2h0.2h0.2h0.2h0.2h0.2h0.2h0.2h0.2h0.2h0.2h0.2
		h0.2h0.2h0.2h0.2h0.2h0.2h0.2h0.2h0.2h0.2h0.2h0.2h0.2h0.2h0.2h0.2h0.2h0.2h0.2h0.2h0.2h0.2h0.2h0.2h0.2h0.2h0.2h0.2h0.2h0.2h0.2
		h0.2h0.2h0.2h0.2h0.2h0.2h0.2h0.2h0.2h0.2h0.2h0.2h0.2h0.2h0.2h0.2h0.2h0.2h0.2h0.2h0.2h0.2h0.2h0.2h0.2h0.2h0.2h0.2h0.2h0.2h0.2
		h0.2h0.2h0.2h0.2h0.2h0.2h0.2h0.2h0.2h0.2h0.2h0.2h0.2h0.2h0.2h0.2h0.2h0.2h0.2h0.2h0.2c17.7,0,39.9-6.3,57.7-21.1
		c17.8-14.7,31.4-38,32.2-72.2C294.3,284.9,279.4,261.6,260.6,246.7z M269.2,319.1c-0.9,27.4-10.9,44.6-24.3,54.8
		c-13.3,10.2-29.5,13.3-42.4,13.3h-0.1h-0.1h-0.1h-0.1h-0.1h-0.1h-0.1h-0.1h-0.1H201h-0.1h-0.2h-0.2h-0.2h-0.2h-0.2H200h-0.2h-0.2
		h-0.2h-0.2h-0.2H199h-0.2h-0.2h-0.2h-0.2h-0.2h-0.2H198h-0.2h-0.2h-0.2h-0.2h-0.2H197h-0.2h-0.2h-0.2h-0.2h-0.2h-0.2h-0.2h-0.2
		h-0.2h-0.2h-0.2h-0.2H195h-0.2h-0.2h-0.2h-0.2h-0.2H194h-0.2h-0.2h-0.2h-0.2h-0.2H193h-0.2h-0.2h-0.2h-0.2h-0.2h-0.2h-0.2h-0.2
		h-0.2h-0.2h-0.2h-0.2h-0.2h-0.2h-0.2h-0.2h-0.2h-0.2h-0.2h-0.2h-0.2h-0.2h-0.2h-0.2h-0.2h-0.2h-0.2h-0.2h-0.2h-0.2H188h-0.2h-0.2
		h-0.2h-0.2h-0.2H187h-0.2h-0.2h-0.2h-0.2h-0.2H186h-0.2h-0.2h-0.2h-0.2h-0.2h-0.2h-0.2h-0.2h-0.2h-0.2h-0.2h-0.2h-0.2h-0.2h-0.2
		h-0.2h-0.2h-0.2h-0.2h-0.2h-0.2h-0.2h-0.2h-0.2h-0.2h-0.2h-0.2h-0.2h-0.2h-0.2h-0.2h-0.2h-0.2h-0.2h-0.2h-0.2h-0.2h-0.2h-0.2h-0.2
		h-0.2h-0.2h-0.2h-0.2h-0.2h-0.2h-0.2h-0.2h-0.2h-0.2h-0.2h-0.2h-0.2h-0.2h-0.2h-0.2h-0.2h-0.2H176h-0.2h-0.2h-0.2h-0.2h-0.2H175
		h-0.2h-0.2h-0.2h-0.2h-0.2H174h-0.2h-0.2h-0.2h-0.2h-0.2h-0.2h-0.2h-0.2h-0.2h-0.2h-0.2h-0.2h-0.2h-0.2h-0.2h-0.2h-0.2h-0.2h-0.2
		h-0.2h-0.2h-0.2h-0.2h-0.2h-0.2h-0.2h-0.2h-0.2h-0.2h-0.2H169h-0.2h-0.2h-0.2h-0.2h-0.2H168h-0.2h-0.2h-0.2h-0.2h-0.2H167h-0.2
		h-0.2h-0.2h-0.2h-0.2h-0.2h-0.2h-0.2h-0.2h-0.2h-0.2h-0.2H165h-0.2h-0.2h-0.2h-0.2h-0.2H164h-0.2h-0.2h-0.2h-0.2h-0.2h-0.2h-0.2
		h-0.2h-0.2h-0.2h-0.2h-0.2H162h-0.2h-0.2h-0.2h-0.2h-0.2h-0.2H161h-0.2h-0.2h-0.1h-0.1h-0.1h-0.1h-0.1h-0.1h-0.1h-0.1h-0.1h-0.1
		H159h-0.1h-0.1h-0.1h-0.1h-0.1h-0.1H158h-0.1h-0.1h-0.1h-0.1h-0.1h-0.1H157h-0.1h-0.1h-0.1h-0.1h-0.1h-0.1H156h-0.1h-0.1h-0.1h-0.1
		h-0.1h-0.1h-0.1h-0.1h-0.1h-0.1h-0.1h-0.1h-0.1h-0.1H154h-0.1h-0.1h-0.1h-0.1h-0.1h-0.1H153h-0.1h-0.1h-0.1h-0.1h-0.1h-0.1h-0.1
		H152h-0.1h-0.1h-0.1h-0.1h-0.1h-0.1h-0.1H151h-0.1h-0.1h-0.1h-0.1h-0.1h-0.1h-0.1H150h-0.1h-0.1h-0.1h-0.1h-0.1h-0.1h-0.1h-0.1H149
		h-0.1h-0.1h-0.1h-0.1h-0.1h-0.1h-0.1h-0.1H148h-0.1h-0.1h-0.1h-0.1h-0.1h-0.1h-0.1h-0.1H147h-0.1h-0.1h-0.1h-0.1h-0.1h-0.1h-0.1
		h-0.1h-0.1H146h-0.1h-0.1h-0.1h-0.1h-0.1h-0.1h-0.1h-0.1h-0.1H145h-0.1h-0.1h-0.1h-0.1h-0.1h-0.1h-0.1h-0.1h-0.1h-0.1H144h-0.1
		h-0.1h-0.1h-0.1h-0.1h-0.1h-0.1h-0.1h-0.1h-0.1H143H143h-0.1h-0.1h-0.1h-0.1h-0.1h-0.1h-0.1h-0.1h-0.1h-0.1h-0.1H142H142h-0.1h-0.1
		h-0.1h-0.1h-0.1h-0.1h-0.1h-0.1h-0.1h-0.1h-0.1h-0.1h-0.1H141H141h-0.1h-0.1h-0.1h-0.1h-0.1h-0.1h-0.1h-0.1h-0.1h-0.1h-0.1h-0.1
		h-0.1h-0.1h-0.1h-0.1h0h0h0h0h0h0h0h0h0h0h0h0h0h0h0h0h0h0h0h0h0h0h0h0h0h0h0h0h0h0h0h0h0h0h0h0h0h0h0h0h0h0h0h0h0h0h0h0h0h0h0h0h0
		h0h0h0h0h0h0h0h0H136v-2.5v-132v-2.5h2.5h0h0h0h0h0.1h0.4h1.5h5.6h18.2h39.2c9.3,0,26.1,3.3,40.3,13.5
		C258.3,274.1,270.1,291.5,269.2,319.1z"/>
</g>
<polygon points="412.5,113.1 110.5,167.6 110.5,196.4 412.5,142.9 717.5,196.4 717.5,167.6 "/>
<path d="M119.8,468.4h-7.7v15.4h-3.5v-33.6h3.5v15.1h7.7l11.4-15.1h3.8l-12.5,16.3l13.2,17.3h-4.1L119.8,468.4z M192.8,484.1
	c-3.3,0-6.4-0.7-9.1-2.2c-2.7-1.5-4.8-3.6-6.3-6.1c-1.5-2.6-2.3-5.5-2.3-8.7c0-3.2,0.8-6.1,2.3-8.7c1.5-2.6,3.6-4.6,6.3-6.1
	c2.7-1.5,5.7-2.3,9.1-2.3c3.3,0,6.3,0.7,9,2.2c2.7,1.5,4.8,3.5,6.3,6.1c1.5,2.6,2.3,5.5,2.3,8.7c0,3.2-0.8,6.2-2.3,8.8
	c-1.5,2.6-3.6,4.6-6.3,6.1C199.2,483.3,196.2,484.1,192.8,484.1z M192.8,480.9c2.7,0,5.1-0.6,7.2-1.8c2.1-1.2,3.8-2.9,5-5
	c1.2-2.1,1.8-4.5,1.8-7.2c0-2.6-0.6-5-1.8-7.1c-1.2-2.1-2.9-3.8-5-5c-2.1-1.2-4.5-1.8-7.2-1.8c-2.7,0-5.1,0.6-7.2,1.8
	c-2.1,1.2-3.8,2.8-5.1,5c-1.2,2.1-1.8,4.5-1.8,7.1c0,2.6,0.6,5,1.8,7.2c1.2,2.1,2.9,3.8,5.1,5C187.8,480.3,190.2,480.9,192.8,480.9z
	 M275.8,466.4c2.3,0.5,4.1,1.4,5.3,2.8c1.2,1.4,1.8,3.2,1.8,5.4c0,2.9-1,5.2-3.1,6.7c-2,1.6-5.1,2.4-9.1,2.4h-14.9v-33.6h14
	c3.6,0,6.4,0.7,8.4,2.2c2,1.5,3,3.6,3,6.4c0,1.9-0.5,3.5-1.4,4.8C278.9,464.8,277.5,465.8,275.8,466.4z M259.4,465.4h10.3
	c2.6,0,4.6-0.5,6-1.6c1.4-1.1,2.1-2.6,2.1-4.6c0-2-0.7-3.6-2.1-4.6c-1.4-1.1-3.4-1.6-6-1.6h-10.3V465.4z M270.8,480.9
	c5.8,0,8.7-2.2,8.7-6.5c0-4.2-2.9-6.3-8.7-6.3h-11.4v12.8H270.8z M343.5,484.1c-3.3,0-6.4-0.7-9.1-2.2c-2.7-1.5-4.8-3.6-6.3-6.1
	c-1.5-2.6-2.3-5.5-2.3-8.7c0-3.2,0.8-6.1,2.3-8.7c1.5-2.6,3.6-4.6,6.3-6.1c2.7-1.5,5.7-2.3,9.1-2.3c3.3,0,6.3,0.7,9,2.2
	c2.7,1.5,4.8,3.5,6.3,6.1c1.5,2.6,2.3,5.5,2.3,8.7c0,3.2-0.8,6.2-2.3,8.8c-1.5,2.6-3.6,4.6-6.3,6.1
	C349.9,483.3,346.9,484.1,343.5,484.1z M343.5,480.9c2.7,0,5.1-0.6,7.2-1.8c2.1-1.2,3.8-2.9,5-5c1.2-2.1,1.8-4.5,1.8-7.2
	c0-2.6-0.6-5-1.8-7.1c-1.2-2.1-2.9-3.8-5-5c-2.1-1.2-4.5-1.8-7.2-1.8c-2.7,0-5.1,0.6-7.2,1.8c-2.1,1.2-3.8,2.8-5.1,5
	c-1.2,2.1-1.8,4.5-1.8,7.1c0,2.6,0.6,5,1.8,7.2c1.2,2.1,2.9,3.8,5.1,5C338.5,480.3,340.9,480.9,343.5,480.9z M419.2,450.2
	c4.3,0,7.6,1,10.1,3.1c2.4,2,3.6,4.9,3.6,8.4c0,3.6-1.2,6.4-3.6,8.4c-2.4,2-5.8,3-10.1,3h-9v10.6h-3.6v-33.6H419.2z M419.1,470
	c3.3,0,5.9-0.7,7.6-2.2c1.8-1.5,2.6-3.5,2.6-6.2c0-2.7-0.9-4.8-2.6-6.2c-1.8-1.5-4.3-2.2-7.6-2.2h-8.9V470H419.1z M488.3,468.4h-7.7
	v15.4h-3.5v-33.6h3.5v15.1h7.7l11.4-15.1h3.8L491,466.5l13.2,17.3h-4.1L488.3,468.4z M546.7,450.2h3.5V478l21.5-27.8h3.2v33.6h-3.5
	V456l-21.5,27.8h-3.2V450.2z M651.3,450.2v33.6h-3.5v-15.5h-21v15.5h-3.6v-33.6h3.6v15h21v-15H651.3z M720.9,453.2H703l0,30.5h-3.5
	v-33.6h21.4V453.2z"/>
</svg>
